<svg viewBox="0 0 40 40" xmlns="http://www.w3.org/2000/svg">
<path d="M9.779718,14.89474 l-9.25,0 l0,-14.375 l9.25,0 l0,14.375 z" fill="none" stroke="black" stroke-width="0.05"/>
<path d="M0.342218,0.3322397 l0,14.75 l9.625,0 l0,-14.75 l-9.625,0 z" fill="none" stroke="black" stroke-width="0.05"/>
<path d="M6.0439425,4.041043 l-0.12169685,0.08890157 l-0.10587451,-0.068463154 l-0.05658678,-0.23012254 l0.035921436,-0.27578413 l0.0087485155,-0.018799473 l0.11693701,-0.08495669 l0.12175984,0.08985433 l0.04165748,0.25309056 l-0.04086614,0.24627952 z" fill="none" stroke="black" stroke-width="0.05"/>
<path d="M5.7106867,4.119015 l0.21812205,0.11691732 l0.21423228,-0.11686614 l0.071700186,-0.24828106 l0.0024415487,-0.07087642 l-0.047408324,-0.2779656 l-0.030898761,-0.057156447 l-0.22398031,-0.11903543 l-0.20841733,0.11603543 l-0.07467354,0.2353301 l0.04471018,0.36226994 l0.03417202,0.05962832 z" fill="none" stroke="black" stroke-width="0.05"/>
<path d="M5.1330566,3.3600469 l0,0.7326338 l-0.1463937,-0.078889765 l-0.026622048,0.10502362 l0.19283858,0.1028189 l0.10846457,0 l0,-0.86158663 l-0.1282874,0 z" fill="none" stroke="black" stroke-width="0.05"/>
<path d="M4.4306707,3.9728184 l-0.1985315,-0.2755866 l0.25225592,0 l0.002484252,0.37386614 l-0.056208663,-0.09827953 z" fill="none" stroke="black" stroke-width="0.05"/>
<path d="M4.484395,3.3600469 l0,0.22972834 l-0.3921378,0 l0,0.086913384 l0.3809252,0.5449449 l0.13705118,0 l0,-0.52440155 l0.11764173,0 l0,-0.10745669 l-0.11764173,0 l0,-0.22972834 l-0.12583858,0 z" fill="none" stroke="black" stroke-width="0.05"/>
<path d="M8.77995,5.259094 l-0.0031259842,0.13653544 l-0.09706693,-0.2875866 l-0.15655905,-0.43033072 l-0.0985315,0 l-0.1998504,0.6004252 l-0.031523623,0.109161414 l-0.038846456,-0.7147323 l-0.12594095,0 l0.062535435,0.8927126 l0.15853937,0 l0.15164961,-0.42917323 l0.08166142,-0.2691693 l0.08516142,0.2692559 l0.15824804,0.42908663 l0.15850787,0 l0.05586614,-0.8927126 l-0.12837401,0 l-0.032350395,0.5865276 z" fill="none" stroke="black" stroke-width="0.05"/>
<path d="M7.578966,5.418098 l-0.15020078,0.051488187 l-0.15044095,-0.04996063 l-0.09036614,-0.12901968 l0.0015551181,-0.3484803 l0.091980316,-0.12545669 l0.29280314,-0.0002440945 l0.091952756,0.12718505 l0.0023976378,0.3456063 l-0.089681104,0.12888189 z" fill="none" stroke="black" stroke-width="0.05"/>
<path d="M7.072659,5.3578186 l0.36096063,0.22175984 l0.35285828,-0.2174252 l-0.0066968505,-0.49176377 l-0.3584882,-0.21220079 l-0.29012206,0.12570079 l-0.112582676,0.32721654 l0.054070868,0.2467126 z" fill="none" stroke="black" stroke-width="0.05"/>
<path d="M6.5969896,5.418098 l-0.15020078,0.051488187 l-0.15044488,-0.04996063 l-0.09036614,-0.12901968 l0.0015551181,-0.3484803 l0.091980316,-0.12545669 l0.29280314,-0.0002440945 l0.09277166,0.12718505 l0.0015826771,0.3456063 l-0.089681104,0.12888189 z" fill="none" stroke="black" stroke-width="0.05"/>
<path d="M6.0906787,5.3578186 l0.36096457,0.22175984 l0.35285828,-0.2174252 l-0.006700787,-0.49176377 l-0.35930315,-0.21220079 l-0.28930315,0.12570079 l-0.1105183,0.28316873 l0.052002553,0.2907604 z" fill="none" stroke="black" stroke-width="0.05"/>
<path d="M5.5325527,5.466972 l-0.10291339,-0.0082559055 l0,-0.30354723 l0.10614173,0 l0.13883464,0.043374017 l0.04991732,0.11380315 l-0.051838584,0.11647244 l-0.14014173,0.038153544 z" fill="none" stroke="black" stroke-width="0.05"/>
<path d="M5.8552732,5.325165 l-0.15344882,-0.2253937 l0.06933071,-0.05933858 l0.048932843,-0.12108702 l0.036508102,-0.14850746 l0.03562992,-0.09827165 l-0.13720472,0 l-0.027744094,0.079429135 l-0.03359055,0.13666536 l-0.056299213,0.124188974 l-0.11065354,0.03870079 l-0.09709449,0 l0,-0.37898424 l-0.13074015,0 l0,0.8795512 l0.22548425,0.01969685 l0.15439764,-0.01740945 l0.17649212,-0.22924016 z" fill="none" stroke="black" stroke-width="0.05"/>
<path d="M5.003907,5.4220862 l-0.1706063,0.046110235 l-0.120980315,-0.04025984 l0.003559055,-0.17261024 l0.1295,-0.06951575 l0.170937,-0.104114175 l-0.02001181,-0.34440157 l-0.19063288,-0.07523036 l-0.28037104,0.058265794 l0.033917323,0.11230709 l0.20784646,-0.061846457 l0.12898819,0.03944882 l0.009944882,0.19531102 l-0.12399212,0.07112205 l-0.17237008,0.098688975 l0.01676378,0.3345512 l0.21090157,0.06966536 l0.20457481,-0.04776378 l-0.037968505,-0.109728344 z" fill="none" stroke="black" stroke-width="0.05"/>
<path d="M4.2769856,5.4223146 l-0.17077953,0.04588189 l-0.12097638,-0.04025984 l0.0035629922,-0.17261024 l0.1295,-0.06951575 l0.17008267,-0.10407874 l-0.019980315,-0.344437 l-0.19062786,-0.07523036 l-0.27955323,0.058265794 l0.03396063,0.11247244 l0.20779921,-0.062011812 l0.12899213,0.03944882 l0.009177165,0.19525984 l-0.123236224,0.07117716 l-0.17232677,0.09865354 l0.015913386,0.3345827 l0.21090157,0.06966536 l0.20452362,-0.047732282 l-0.036933072,-0.1095315 z" fill="none" stroke="black" stroke-width="0.05"/>
<path d="M3.229966,5.295204 l-0.081795275,-0.24133858 l0.23797637,0 l-0.11937008,0.37127164 l-0.036811024,-0.12993307 z" fill="none" stroke="black" stroke-width="0.05"/>
<path d="M3.5090487,4.6725664 l-0.09313386,0.27507088 l-0.29748031,0 l-0.090681106,-0.27507088 l-0.13590157,0 l0.30349606,0.8927126 l0.14931495,0 l0.30432284,-0.8927126 l-0.13993701,0 z" fill="none" stroke="black" stroke-width="0.05"/>
<path d="M2.3922021,5.565279 l0,-0.78011024 l0.37416536,0 l0,-0.11260236 l-0.5049055,0 l0,0.8927126 l0.13074015,0 z" fill="none" stroke="black" stroke-width="0.05"/>
<path d="M1.8334621,4.7720194 l0.19058661,0.04020079 l0.027322834,-0.10685039 l-0.0993189,-0.032775592 l-0.14151968,-0.013098425 l-0.22638583,0.051992126 l-0.15644488,0.15289764 l-0.05835433,0.24675196 l0.12925984,0.3388425 l0.33640158,0.12959842 l0.2181496,-0.04363386 l-0.031940944,-0.10907087 l-0.1820748,0.040098425 l-0.24195276,-0.09157087 l-0.089640714,-0.22754262 l-0.0009262149,-0.03281564 l0.08582677,-0.25015354 l0.24101181,-0.09287008 z" fill="none" stroke="black" stroke-width="0.05"/>
<path d="M7.157305,2.9030113 l0.039,-0.038996063 l-0.066562995,-0.027562993 l0.027562993,0.066559054 z" fill="none" stroke="black" stroke-width="0.05"/>
<path d="M7.0573044,2.9030113 l0.039,-0.038996063 l-0.066562995,-0.027562993 l0.027562993,0.066559054 z" fill="none" stroke="black" stroke-width="0.05"/>
<path d="M7.157305,3.0030115 l0.039,-0.039 l-0.06656693,-0.027559055 l0.027566928,0.066559054 z" fill="none" stroke="black" stroke-width="0.05"/>
<path d="M6.756907,3.0030115 l0.039,-0.039 l-0.06656693,-0.027559055 l0.027566928,0.066559054 z" fill="none" stroke="black" stroke-width="0.05"/>
<path d="M6.5565095,2.9030113 l0.039,-0.038996063 l-0.066562995,-0.027562993 l0.027562993,0.066559054 z" fill="none" stroke="black" stroke-width="0.05"/>
<path d="M6.5565095,3.0030115 l0.039,-0.039 l-0.06656693,-0.027559055 l0.027566928,0.066559054 z" fill="none" stroke="black" stroke-width="0.05"/>
<path d="M6.456509,3.0030115 l0.039,-0.039 l-0.06656693,-0.027559055 l0.027566928,0.066559054 z" fill="none" stroke="black" stroke-width="0.05"/>
<path d="M6.2561116,2.8030152 l0.039,-0.039 l-0.066562995,-0.027562993 l0.027562993,0.066562995 z" fill="none" stroke="black" stroke-width="0.05"/>
<path d="M6.1561117,2.8030152 l0.039,-0.039 l-0.066562995,-0.027562993 l0.027562993,0.066562995 z" fill="none" stroke="black" stroke-width="0.05"/>
<path d="M6.2561116,2.9030113 l0.039,-0.038996063 l-0.066562995,-0.027562993 l0.027562993,0.066559054 z" fill="none" stroke="black" stroke-width="0.05"/>
<path d="M6.2561116,3.0030115 l0.039,-0.039 l-0.06656693,-0.027559055 l0.027566928,0.066559054 z" fill="none" stroke="black" stroke-width="0.05"/>
<path d="M5.5553164,2.8030152 l0.039,-0.039 l-0.066562995,-0.027562993 l0.027562993,0.066562995 z" fill="none" stroke="black" stroke-width="0.05"/>
<path d="M5.6553164,3.0030115 l0.039,-0.039 l-0.06656693,-0.027559055 l0.027566928,0.066559054 z" fill="none" stroke="black" stroke-width="0.05"/>
<path d="M5.5553164,3.0030115 l0.039,-0.039 l-0.06656693,-0.027559055 l0.027566928,0.066559054 z" fill="none" stroke="black" stroke-width="0.05"/>
<path d="M5.2549186,2.8030152 l0.039,-0.039 l-0.066562995,-0.027562993 l0.027562993,0.066562995 z" fill="none" stroke="black" stroke-width="0.05"/>
<path d="M5.354919,2.9030113 l0.039,-0.038996063 l-0.066562995,-0.027562993 l0.027562993,0.066559054 z" fill="none" stroke="black" stroke-width="0.05"/>
<path d="M5.2549186,3.0030115 l0.039,-0.039 l-0.06656693,-0.027559055 l0.027566928,0.066559054 z" fill="none" stroke="black" stroke-width="0.05"/>
<path d="M4.954521,2.8030152 l0.039,-0.039 l-0.066562995,-0.027562993 l0.027562993,0.066562995 z" fill="none" stroke="black" stroke-width="0.05"/>
<path d="M5.054521,2.9030113 l0.039,-0.038996063 l-0.066562995,-0.027562993 l0.027562993,0.066559054 z" fill="none" stroke="black" stroke-width="0.05"/>
<path d="M4.954521,3.0030115 l0.039,-0.039 l-0.06656693,-0.027559055 l0.027566928,0.066559054 z" fill="none" stroke="black" stroke-width="0.05"/>
<path d="M4.6541233,2.8030152 l0.039,-0.039 l-0.066562995,-0.027562993 l0.027562993,0.066562995 z" fill="none" stroke="black" stroke-width="0.05"/>
<path d="M4.7541237,2.9030113 l0.039,-0.038996063 l-0.066562995,-0.027562993 l0.027562993,0.066559054 z" fill="none" stroke="black" stroke-width="0.05"/>
<path d="M4.6541233,2.9030113 l0.039,-0.038996063 l-0.066562995,-0.027562993 l0.027562993,0.066559054 z" fill="none" stroke="black" stroke-width="0.05"/>
<path d="M4.6541233,3.0030115 l0.039,-0.039 l-0.06656693,-0.027559055 l0.027566928,0.066559054 z" fill="none" stroke="black" stroke-width="0.05"/>
<path d="M4.353726,2.8030152 l0.039,-0.039 l-0.066562995,-0.027562993 l0.027562993,0.066562995 z" fill="none" stroke="black" stroke-width="0.05"/>
<path d="M4.353726,2.9030113 l0.039,-0.038996063 l-0.066562995,-0.027562993 l0.027562993,0.066559054 z" fill="none" stroke="black" stroke-width="0.05"/>
<path d="M4.453726,3.0030115 l0.039,-0.039 l-0.06656693,-0.027559055 l0.027566928,0.066559054 z" fill="none" stroke="black" stroke-width="0.05"/>
<path d="M4.053328,2.8030152 l0.039,-0.039 l-0.066562995,-0.027562993 l0.027562993,0.066562995 z" fill="none" stroke="black" stroke-width="0.05"/>
<path d="M4.053328,2.9030113 l0.039,-0.038996063 l-0.066562995,-0.027562993 l0.027562993,0.066559054 z" fill="none" stroke="black" stroke-width="0.05"/>
<path d="M4.1533284,3.0030115 l0.039,-0.039 l-0.06656693,-0.027559055 l0.027566928,0.066559054 z" fill="none" stroke="black" stroke-width="0.05"/>
<path d="M3.7529306,3.0030115 l0.039,-0.039 l-0.06656693,-0.027559055 l0.027566928,0.066559054 z" fill="none" stroke="black" stroke-width="0.05"/>
<path d="M3.452533,2.8030152 l0.039,-0.039 l-0.066562995,-0.027562993 l0.027562993,0.066562995 z" fill="none" stroke="black" stroke-width="0.05"/>
<path d="M3.452533,2.9030113 l0.039,-0.038996063 l-0.066562995,-0.027562993 l0.027562993,0.066559054 z" fill="none" stroke="black" stroke-width="0.05"/>
<path d="M3.452533,3.0030115 l0.039,-0.039 l-0.06656693,-0.027559055 l0.027566928,0.066559054 z" fill="none" stroke="black" stroke-width="0.05"/>
<path d="M3.2521353,3.0030115 l0.039,-0.039 l-0.06656693,-0.027559055 l0.027566928,0.066559054 z" fill="none" stroke="black" stroke-width="0.05"/>
<path d="M3.1521354,3.0030115 l0.039,-0.039 l-0.06656693,-0.027559055 l0.027566928,0.066559054 z" fill="none" stroke="black" stroke-width="0.05"/>
<path d="M8.812384,11.790461 l-0.035440944,0.72245276 l-0.09685827,-0.2869803 l-0.1566378,-0.43032676 l-0.0982874,0 l-0.20068897,0.60057086 l-0.030767716,0.10872441 l-0.03924803,-0.71444094 l-0.12586221,0 l0.06220079,0.892874 l0.15887402,0 l0.1513937,-0.42924017 l0.081838585,-0.26886222 l0.08549606,0.26913387 l0.158063,0.4289685 l0.15876378,0 l0.055692915,-0.892874 l-0.1285315,0 z" fill="none" stroke="black" stroke-width="0.05"/>
<path d="M7.5790644,12.536058 l-0.15020078,0.0515 l-0.15019292,-0.04994488 l-0.09070866,-0.1291063 l0.0015511811,-0.34840158 l0.092074804,-0.12547244 l0.29264566,-0.0003031496 l0.09251575,0.12719291 l0.0023070867,0.34559056 l-0.08999213,0.12894489 z" fill="none" stroke="black" stroke-width="0.05"/>
<path d="M7.0729976,12.475811 l0.36094883,0.2218189 l0.35252362,-0.21755905 l-0.0069330707,-0.4916181 l-0.35857087,-0.21229135 l-0.28996062,0.12562598 l-0.11069271,0.28735167 l0.052684836,0.28667197 z" fill="none" stroke="black" stroke-width="0.05"/>
<path d="M6.597084,12.536062 l-0.15028347,0.051496062 l-0.15011811,-0.049952757 l-0.09086221,-0.12909843 l0.0016338583,-0.34840158 l0.09223229,-0.1254685 l0.29264566,-0.00031496063 l0.09243701,0.12720078 l0.0023110237,0.34558266 l-0.08999606,0.12895669 z" fill="none" stroke="black" stroke-width="0.05"/>
<path d="M6.091096,12.475806 l0.36095276,0.22182283 l0.35252362,-0.21755905 l-0.007007874,-0.49161023 l-0.35865748,-0.21229921 l-0.28996456,0.12562992 l-0.11052992,0.2873656 l0.05268347,0.28665015 z" fill="none" stroke="black" stroke-width="0.05"/>
<path d="M5.5322847,12.584945 l-0.10264567,-0.008287402 l0,-0.30359843 l0.106464565,0 l0.13824803,0.043437008 l0.050346456,0.11380315 l-0.052161418,0.11649212 l-0.14025196,0.038153544 z" fill="none" stroke="black" stroke-width="0.05"/>
<path d="M5.8554344,12.443322 l-0.15397638,-0.22561418 l0.069370076,-0.059374016 l0.04802756,-0.11670079 l0.03757874,-0.15292913 l0.036031496,-0.09824409 l-0.13677165,0 l-0.028807087,0.07943307 l-0.033279527,0.13672835 l-0.056358267,0.12417323 l-0.11019685,0.038728345 l-0.09741338,0 l0,-0.37906298 l-0.1308189,0 l0,0.8795551 l0.2256378,0.019692913 l0.154,-0.01740945 l0.17697638,-0.22897638 z" fill="none" stroke="black" stroke-width="0.05"/>
<path d="M5.004482,12.540389 l-0.17102362,0.045940943 l-0.1208937,-0.04042126 l0.0036535433,-0.17261417 l0.12932284,-0.06959449 l0.17068504,-0.104098424 l-0.020086614,-0.34442127 l-0.1898232,-0.075047895 l-0.28066105,0.05828805 l0.03375197,0.112417325 l0.20774803,-0.062074803 l0.12896062,0.03935433 l0.009570866,0.19538976 l-0.123358265,0.07113779 l-0.17227559,0.09884646 l0.016098425,0.33430707 l0.21107087,0.06983071 l0.20426771,-0.047866143 l-0.037007876,-0.10937402 z" fill="none" stroke="black" stroke-width="0.05"/>
<path d="M4.276982,12.540389 l-0.17102362,0.045940943 l-0.12088189,-0.040413387 l0.003476378,-0.17262204 l0.12949607,-0.06959449 l0.17050788,-0.10409055 l-0.019917322,-0.34442914 l-0.18982208,-0.075047895 l-0.28066218,0.05828805 l0.033755906,0.112417325 l0.20774409,-0.062074803 l0.12904724,0.03935433 l0.009488189,0.19538976 l-0.123358265,0.07113779 l-0.17227165,0.09884646 l0.016098425,0.33431104 l0.211063,0.069826774 l0.20426771,-0.047866143 l-0.037007876,-0.10937402 z" fill="none" stroke="black" stroke-width="0.05"/>
<path d="M3.2298756,12.413232 l-0.08170866,-0.2413937 l0.23835433,0 l-0.11979528,0.37111416 l-0.036850393,-0.12972048 z" fill="none" stroke="black" stroke-width="0.05"/>
<path d="M3.509462,11.790461 l-0.09346063,0.2751496 l-0.2972441,0 l-0.090925194,-0.2751496 l-0.1358937,0 l0.30332282,0.892874 l0.14932284,0 l0.30457085,-0.892874 l-0.13969292,0 z" fill="none" stroke="black" stroke-width="0.05"/>
<path d="M2.3922849,12.683334 l0,-0.78027165 l0.37383857,0 l0,-0.11260236 l-0.5046575,0 l0,0.892874 l0.1308189,0 z" fill="none" stroke="black" stroke-width="0.05"/>
<path d="M1.8337101,11.890153 l0.19028346,0.040074803 l0.027838582,-0.10696063 l-0.09979134,-0.032622047 l-0.14182678,-0.013177166 l-0.22582677,0.05192126 l-0.15691732,0.15302756 l-0.058366142,0.24662992 l0.12933858,0.3388189 l0.3364882,0.12976378 l0.21844095,-0.043649606 l-0.032452755,-0.1090748 l-0.18201575,0.04003937 l-0.2413189,-0.09166536 l-0.09004438,-0.22638187 l-0.0010776646,-0.033992153 l0.08574016,-0.2501181 l0.24150787,-0.09263386 z" fill="none" stroke="black" stroke-width="0.05"/>
<path d="M5.9398007,10.478024 l0,0.7325433 l-0.1462441,-0.07881103 l-0.026433071,0.10494882 l0.19249213,0.10290551 l0.108472444,0 l0,-0.86158663 l-0.1282874,0 z" fill="none" stroke="black" stroke-width="0.05"/>
<path d="M5.2817454,10.478024 l0,0.73262596 l-0.14613385,-0.07888582 l-0.02672441,0.10493307 l0.19250788,0.10291339 l0.10847638,0 l0,-0.86158663 l-0.12812598,0 z" fill="none" stroke="black" stroke-width="0.05"/>
<path d="M4.57984,11.090783 l-0.19842125,-0.27565747 l0.25199214,0 l0.0022244095,0.37357086 l-0.055795275,-0.097913384 z" fill="none" stroke="black" stroke-width="0.05"/>
<path d="M4.633411,10.478024 l0,0.22964567 l-0.39205906,0 l0,0.08698819 l0.38067716,0.54495275 l0.13688977,0 l0,-0.5244843 l0.11821654,0 l0,-0.10745669 l-0.11821654,0 l0,-0.22964567 l-0.12550788,0 z" fill="none" stroke="black" stroke-width="0.05"/>
<path d="M7.1073046,10.128012 l0.039,-0.039 l-0.06656693,-0.027559055 l0.027566928,0.066559054 z" fill="none" stroke="black" stroke-width="0.05"/>
<path d="M6.806907,10.128012 l0.039,-0.039 l-0.06656693,-0.027559055 l0.027566928,0.066559054 z" fill="none" stroke="black" stroke-width="0.05"/>
<path d="M6.606509,10.028011 l0.039,-0.038996063 l-0.066562995,-0.027562993 l0.027562993,0.066559054 z" fill="none" stroke="black" stroke-width="0.05"/>
<path d="M6.606509,10.128012 l0.039,-0.039 l-0.06656693,-0.027559055 l0.027566928,0.066559054 z" fill="none" stroke="black" stroke-width="0.05"/>
<path d="M6.5065093,10.128012 l0.039,-0.039 l-0.06656693,-0.027559055 l0.027566928,0.066559054 z" fill="none" stroke="black" stroke-width="0.05"/>
<path d="M6.306112,9.928016 l0.039,-0.039 l-0.066562995,-0.027562993 l0.027562993,0.066562995 z" fill="none" stroke="black" stroke-width="0.05"/>
<path d="M6.206112,9.928016 l0.039,-0.039 l-0.066562995,-0.027562993 l0.027562993,0.066562995 z" fill="none" stroke="black" stroke-width="0.05"/>
<path d="M6.306112,10.028011 l0.039,-0.038996063 l-0.066562995,-0.027562993 l0.027562993,0.066559054 z" fill="none" stroke="black" stroke-width="0.05"/>
<path d="M6.306112,10.128012 l0.039,-0.039 l-0.06656693,-0.027559055 l0.027566928,0.066559054 z" fill="none" stroke="black" stroke-width="0.05"/>
<path d="M5.6053166,9.928016 l0.039,-0.039 l-0.066562995,-0.027562993 l0.027562993,0.066562995 z" fill="none" stroke="black" stroke-width="0.05"/>
<path d="M5.7053165,10.128012 l0.039,-0.039 l-0.06656693,-0.027559055 l0.027566928,0.066559054 z" fill="none" stroke="black" stroke-width="0.05"/>
<path d="M5.6053166,10.128012 l0.039,-0.039 l-0.06656693,-0.027559055 l0.027566928,0.066559054 z" fill="none" stroke="black" stroke-width="0.05"/>
<path d="M5.304919,9.928016 l0.039,-0.039 l-0.066562995,-0.027562993 l0.027562993,0.066562995 z" fill="none" stroke="black" stroke-width="0.05"/>
<path d="M5.4049187,10.028011 l0.039,-0.038996063 l-0.066562995,-0.027562993 l0.027562993,0.066559054 z" fill="none" stroke="black" stroke-width="0.05"/>
<path d="M5.304919,10.128012 l0.039,-0.039 l-0.06656693,-0.027559055 l0.027566928,0.066559054 z" fill="none" stroke="black" stroke-width="0.05"/>
<path d="M5.0045214,9.928016 l0.039,-0.039 l-0.066562995,-0.027562993 l0.027562993,0.066562995 z" fill="none" stroke="black" stroke-width="0.05"/>
<path d="M5.1045213,10.028011 l0.039,-0.038996063 l-0.066562995,-0.027562993 l0.027562993,0.066559054 z" fill="none" stroke="black" stroke-width="0.05"/>
<path d="M5.0045214,10.128012 l0.039,-0.039 l-0.06656693,-0.027559055 l0.027566928,0.066559054 z" fill="none" stroke="black" stroke-width="0.05"/>
<path d="M4.7041235,9.928016 l0.039,-0.039 l-0.066562995,-0.027562993 l0.027562993,0.066562995 z" fill="none" stroke="black" stroke-width="0.05"/>
<path d="M4.8041234,10.028011 l0.039,-0.038996063 l-0.066562995,-0.027562993 l0.027562993,0.066559054 z" fill="none" stroke="black" stroke-width="0.05"/>
<path d="M4.7041235,10.028011 l0.039,-0.038996063 l-0.066562995,-0.027562993 l0.027562993,0.066559054 z" fill="none" stroke="black" stroke-width="0.05"/>
<path d="M4.7041235,10.128012 l0.039,-0.039 l-0.06656693,-0.027559055 l0.027566928,0.066559054 z" fill="none" stroke="black" stroke-width="0.05"/>
<path d="M4.403726,9.928016 l0.039,-0.039 l-0.066562995,-0.027562993 l0.027562993,0.066562995 z" fill="none" stroke="black" stroke-width="0.05"/>
<path d="M4.403726,10.028011 l0.039,-0.038996063 l-0.066562995,-0.027562993 l0.027562993,0.066559054 z" fill="none" stroke="black" stroke-width="0.05"/>
<path d="M4.503726,10.128012 l0.039,-0.039 l-0.06656693,-0.027559055 l0.027566928,0.066559054 z" fill="none" stroke="black" stroke-width="0.05"/>
<path d="M4.103328,9.928016 l0.039,-0.039 l-0.066562995,-0.027562993 l0.027562993,0.066562995 z" fill="none" stroke="black" stroke-width="0.05"/>
<path d="M4.103328,10.028011 l0.039,-0.038996063 l-0.066562995,-0.027562993 l0.027562993,0.066559054 z" fill="none" stroke="black" stroke-width="0.05"/>
<path d="M4.203328,10.128012 l0.039,-0.039 l-0.06656693,-0.027559055 l0.027566928,0.066559054 z" fill="none" stroke="black" stroke-width="0.05"/>
<path d="M3.8029306,10.128012 l0.039,-0.039 l-0.06656693,-0.027559055 l0.027566928,0.066559054 z" fill="none" stroke="black" stroke-width="0.05"/>
<path d="M3.502533,9.928016 l0.039,-0.039 l-0.066562995,-0.027562993 l0.027562993,0.066562995 z" fill="none" stroke="black" stroke-width="0.05"/>
<path d="M3.502533,10.028011 l0.039,-0.038996063 l-0.066562995,-0.027562993 l0.027562993,0.066559054 z" fill="none" stroke="black" stroke-width="0.05"/>
<path d="M3.502533,10.128012 l0.039,-0.039 l-0.06656693,-0.027559055 l0.027566928,0.066559054 z" fill="none" stroke="black" stroke-width="0.05"/>
<path d="M3.3021352,10.128012 l0.039,-0.039 l-0.06656693,-0.027559055 l0.027566928,0.066559054 z" fill="none" stroke="black" stroke-width="0.05"/>
<path d="M3.2021353,10.128012 l0.039,-0.039 l-0.06656693,-0.027559055 l0.027566928,0.066559054 z" fill="none" stroke="black" stroke-width="0.05"/>
</svg>