  0
SECTION
  2
HEADER
  9
$ACADVER
  1
AC1027
  9
$ACADMAINTVER
 70
   105
  9
$DWGCODEPAGE
  3
ANSI_1252
  9
$LASTSAVEDBY
  1
asgpc
  9
$REQUIREDVERSIONS
160
                 0
  9
$INSBASE
 10
0.0
 20
0.0
 30
0.0
  9
$EXTMIN
 10
1.000000000000000E+20
 20
1.000000000000000E+20
 30
1.000000000000000E+20
  9
$EXTMAX
 10
-1.000000000000000E+20
 20
-1.000000000000000E+20
 30
-1.000000000000000E+20
  9
$LIMMIN
 10
0.0
 20
0.0
  9
$LIMMAX
 10
12.0
 20
9.0
  9
$ORTHOMODE
 70
     0
  9
$REGENMODE
 70
     1
  9
$FILLMODE
 70
     1
  9
$QTEXTMODE
 70
     0
  9
$MIRRTEXT
 70
     1
  9
$LTSCALE
 40
1.0
  9
$ATTMODE
 70
     1
  9
$TEXTSIZE
 40
0.2
  9
$TRACEWID
 40
0.05
  9
$TEXTSTYLE
  7
Standard
  9
$CLAYER
  8
0
  9
$CELTYPE
  6
ByLayer
  9
$CECOLOR
 62
   256
  9
$CELTSCALE
 40
1.0
  9
$DISPSILH
 70
     0
  9
$DIMSCALE
 40
1.0
  9
$DIMASZ
 40
0.18
  9
$DIMEXO
 40
0.0625
  9
$DIMDLI
 40
0.38
  9
$DIMRND
 40
0.0
  9
$DIMDLE
 40
0.0
  9
$DIMEXE
 40
0.18
  9
$DIMTP
 40
0.0
  9
$DIMTM
 40
0.0
  9
$DIMTXT
 40
0.18
  9
$DIMCEN
 40
0.09
  9
$DIMTSZ
 40
0.0
  9
$DIMTOL
 70
     0
  9
$DIMLIM
 70
     0
  9
$DIMTIH
 70
     1
  9
$DIMTOH
 70
     1
  9
$DIMSE1
 70
     0
  9
$DIMSE2
 70
     0
  9
$DIMTAD
 70
     0
  9
$DIMZIN
 70
     0
  9
$DIMBLK
  1

  9
$DIMASO
 70
     1
  9
$DIMSHO
 70
     1
  9
$DIMPOST
  1

  9
$DIMAPOST
  1

  9
$DIMALT
 70
     0
  9
$DIMALTD
 70
     2
  9
$DIMALTF
 40
25.4
  9
$DIMLFAC
 40
1.0
  9
$DIMTOFL
 70
     0
  9
$DIMTVP
 40
0.0
  9
$DIMTIX
 70
     0
  9
$DIMSOXD
 70
     0
  9
$DIMSAH
 70
     0
  9
$DIMBLK1
  1

  9
$DIMBLK2
  1

  9
$DIMSTYLE
  2
Standard
  9
$DIMCLRD
 70
     0
  9
$DIMCLRE
 70
     0
  9
$DIMCLRT
 70
     0
  9
$DIMTFAC
 40
1.0
  9
$DIMGAP
 40
0.09
  9
$DIMJUST
 70
     0
  9
$DIMSD1
 70
     0
  9
$DIMSD2
 70
     0
  9
$DIMTOLJ
 70
     1
  9
$DIMTZIN
 70
     0
  9
$DIMALTZ
 70
     0
  9
$DIMALTTZ
 70
     0
  9
$DIMUPT
 70
     0
  9
$DIMDEC
 70
     4
  9
$DIMTDEC
 70
     4
  9
$DIMALTU
 70
     2
  9
$DIMALTTD
 70
     2
  9
$DIMTXSTY
  7
Standard
  9
$DIMAUNIT
 70
     0
  9
$DIMADEC
 70
     0
  9
$DIMALTRND
 40
0.0
  9
$DIMAZIN
 70
     0
  9
$DIMDSEP
 70
    46
  9
$DIMATFIT
 70
     3
  9
$DIMFRAC
 70
     0
  9
$DIMLDRBLK
  1

  9
$DIMLUNIT
 70
     2
  9
$DIMLWD
 70
    -2
  9
$DIMLWE
 70
    -2
  9
$DIMTMOVE
 70
     0
  9
$DIMFXL
 40
1.0
  9
$DIMFXLON
 70
     0
  9
$DIMJOGANG
 40
0.7853981633974483
  9
$DIMTFILL
 70
     0
  9
$DIMTFILLCLR
 70
     0
  9
$DIMARCSYM
 70
     0
  9
$DIMLTYPE
  6

  9
$DIMLTEX1
  6

  9
$DIMLTEX2
  6

  9
$DIMTXTDIRECTION
 70
     0
  9
$LUNITS
 70
     2
  9
$LUPREC
 70
     4
  9
$SKETCHINC
 40
0.1
  9
$FILLETRAD
 40
0.0
  9
$AUNITS
 70
     0
  9
$AUPREC
 70
     0
  9
$MENU
  1
.
  9
$ELEVATION
 40
0.0
  9
$PELEVATION
 40
0.0
  9
$THICKNESS
 40
0.0
  9
$LIMCHECK
 70
     0
  9
$CHAMFERA
 40
0.0
  9
$CHAMFERB
 40
0.0
  9
$CHAMFERC
 40
0.0
  9
$CHAMFERD
 40
0.0
  9
$SKPOLY
 70
     0
  9
$TDCREATE
 40
2460276.44577353
  9
$TDUCREATE
 40
2460276.654106863
  9
$TDUPDATE
 40
2460276.44577353
  9
$TDUUPDATE
 40
2460276.654106863
  9
$TDINDWG
 40
0.0000000116
  9
$TDUSRTIMER
 40
0.0000000116
  9
$USRTIMER
 70
     1
  9
$ANGBASE
 50
0.0
  9
$ANGDIR
 70
     0
  9
$PDMODE
 70
     0
  9
$PDSIZE
 40
0.0
  9
$PLINEWID
 40
0.0
  9
$SPLFRAME
 70
     0
  9
$SPLINETYPE
 70
     6
  9
$SPLINESEGS
 70
     8
  9
$HANDSEED
  5
D8
  9
$SURFTAB1
 70
     6
  9
$SURFTAB2
 70
     6
  9
$SURFTYPE
 70
     6
  9
$SURFU
 70
     6
  9
$SURFV
 70
     6
  9
$UCSBASE
  2

  9
$UCSNAME
  2

  9
$UCSORG
 10
0.0
 20
0.0
 30
0.0
  9
$UCSXDIR
 10
1.0
 20
0.0
 30
0.0
  9
$UCSYDIR
 10
0.0
 20
1.0
 30
0.0
  9
$UCSORTHOREF
  2

  9
$UCSORTHOVIEW
 70
     0
  9
$UCSORGTOP
 10
0.0
 20
0.0
 30
0.0
  9
$UCSORGBOTTOM
 10
0.0
 20
0.0
 30
0.0
  9
$UCSORGLEFT
 10
0.0
 20
0.0
 30
0.0
  9
$UCSORGRIGHT
 10
0.0
 20
0.0
 30
0.0
  9
$UCSORGFRONT
 10
0.0
 20
0.0
 30
0.0
  9
$UCSORGBACK
 10
0.0
 20
0.0
 30
0.0
  9
$PUCSBASE
  2

  9
$PUCSNAME
  2

  9
$PUCSORG
 10
0.0
 20
0.0
 30
0.0
  9
$PUCSXDIR
 10
1.0
 20
0.0
 30
0.0
  9
$PUCSYDIR
 10
0.0
 20
1.0
 30
0.0
  9
$PUCSORTHOREF
  2

  9
$PUCSORTHOVIEW
 70
     0
  9
$PUCSORGTOP
 10
0.0
 20
0.0
 30
0.0
  9
$PUCSORGBOTTOM
 10
0.0
 20
0.0
 30
0.0
  9
$PUCSORGLEFT
 10
0.0
 20
0.0
 30
0.0
  9
$PUCSORGRIGHT
 10
0.0
 20
0.0
 30
0.0
  9
$PUCSORGFRONT
 10
0.0
 20
0.0
 30
0.0
  9
$PUCSORGBACK
 10
0.0
 20
0.0
 30
0.0
  9
$USERI1
 70
     0
  9
$USERI2
 70
     0
  9
$USERI3
 70
     0
  9
$USERI4
 70
     0
  9
$USERI5
 70
     0
  9
$USERR1
 40
0.0
  9
$USERR2
 40
0.0
  9
$USERR3
 40
0.0
  9
$USERR4
 40
0.0
  9
$USERR5
 40
0.0
  9
$WORLDVIEW
 70
     1
  9
$SHADEDGE
 70
     3
  9
$SHADEDIF
 70
    70
  9
$TILEMODE
 70
     1
  9
$MAXACTVP
 70
    64
  9
$PINSBASE
 10
0.0
 20
0.0
 30
0.0
  9
$PLIMCHECK
 70
     0
  9
$PEXTMIN
 10
1.000000000000000E+20
 20
1.000000000000000E+20
 30
1.000000000000000E+20
  9
$PEXTMAX
 10
-1.000000000000000E+20
 20
-1.000000000000000E+20
 30
-1.000000000000000E+20
  9
$PLIMMIN
 10
0.0
 20
0.0
  9
$PLIMMAX
 10
12.0
 20
9.0
  9
$UNITMODE
 70
     0
  9
$VISRETAIN
 70
     1
  9
$PLINEGEN
 70
     0
  9
$PSLTSCALE
 70
     1
  9
$TREEDEPTH
 70
  3020
  9
$CMLSTYLE
  2
Standard
  9
$CMLJUST
 70
     0
  9
$CMLSCALE
 40
1.0
  9
$PROXYGRAPHICS
 70
     1
  9
$MEASUREMENT
 70
     0
  9
$CELWEIGHT
370
    -1
  9
$ENDCAPS
280
     0
  9
$JOINSTYLE
280
     0
  9
$LWDISPLAY
290
     0
  9
$INSUNITS
 70
     1
  9
$HYPERLINKBASE
  1

  9
$STYLESHEET
  1

  9
$XEDIT
290
     1
  9
$CEPSNTYPE
380
     0
  9
$PSTYLEMODE
290
     1
  9
$FINGERPRINTGUID
  2
{c460cb9e-440a-43c1-b0d6-f0598e4701ec}
  9
$VERSIONGUID
  2
{FAEB1C32-E019-11D5-929B-00C0DF256EC4}
  9
$EXTNAMES
290
     1
  9
$PSVPSCALE
 40
0.0
  9
$OLESTARTUP
290
     0
  9
$SORTENTS
280
   127
  9
$INDEXCTL
280
     0
  9
$HIDETEXT
280
     1
  9
$XCLIPFRAME
280
     2
  9
$HALOGAP
280
     0
  9
$OBSCOLOR
 70
   257
  9
$OBSLTYPE
280
     0
  9
$INTERSECTIONDISPLAY
280
     0
  9
$INTERSECTIONCOLOR
 70
   257
  9
$DIMASSOC
280
     2
  9
$PROJECTNAME
  1

  9
$CAMERADISPLAY
290
     0
  9
$LENSLENGTH
 40
50.0
  9
$CAMERAHEIGHT
 40
0.0
  9
$STEPSPERSEC
 40
2.0
  9
$STEPSIZE
 40
6.0
  9
$3DDWFPREC
 40
2.0
  9
$PSOLWIDTH
 40
0.25
  9
$PSOLHEIGHT
 40
4.0
  9
$LOFTANG1
 40
1.570796326794897
  9
$LOFTANG2
 40
1.570796326794897
  9
$LOFTMAG1
 40
0.0
  9
$LOFTMAG2
 40
0.0
  9
$LOFTPARAM
 70
     7
  9
$LOFTNORMALS
280
     1
  9
$LATITUDE
 40
37.795
  9
$LONGITUDE
 40
-122.394
  9
$NORTHDIRECTION
 40
0.0
  9
$TIMEZONE
 70
 -8000
  9
$LIGHTGLYPHDISPLAY
280
     1
  9
$TILEMODELIGHTSYNCH
280
     1
  9
$CMATERIAL
347
44
  9
$SOLIDHIST
280
     0
  9
$SHOWHIST
280
     1
  9
$DWFFRAME
280
     2
  9
$DGNFRAME
280
     2
  9
$REALWORLDSCALE
290
     1
  9
$INTERFERECOLOR
 62
   256
  9
$CSHADOW
280
     0
  9
$SHADOWPLANELOCATION
 40
0.0
  0
ENDSEC
  0
SECTION
  2
CLASSES
  0
CLASS
  1
ACDBDICTIONARYWDFLT
  2
AcDbDictionaryWithDefault
  3
ObjectDBX Classes
 90
        0
 91
        3
280
     0
281
     0
  0
CLASS
  1
VISUALSTYLE
  2
AcDbVisualStyle
  3
ObjectDBX Classes
 90
     4095
 91
        3
280
     0
281
     0
  0
CLASS
  1
MATERIAL
  2
AcDbMaterial
  3
ObjectDBX Classes
 90
     1153
 91
        3
280
     0
281
     0
  0
CLASS
  1
SCALE
  2
AcDbScale
  3
ObjectDBX Classes
 90
     1153
 91
        3
280
     0
281
     0
  0
CLASS
  1
TABLESTYLE
  2
AcDbTableStyle
  3
ObjectDBX Classes
 90
     4095
 91
        3
280
     0
281
     0
  0
CLASS
  1
MLEADERSTYLE
  2
AcDbMLeaderStyle
  3
ACDB_MLEADERSTYLE_CLASS
 90
     4095
 91
        3
280
     0
281
     0
  0
CLASS
  1
SUN
  2
AcDbSun
  3
SCENEOE
 90
     1153
 91
        3
280
     0
281
     0
  0
CLASS
  1
DICTIONARYVAR
  2
AcDbDictionaryVar
  3
ObjectDBX Classes
 90
        0
 91
        3
280
     0
281
     0
  0
CLASS
  1
CELLSTYLEMAP
  2
AcDbCellStyleMap
  3
ObjectDBX Classes
 90
     1152
 91
        3
280
     0
281
     0
  0
ENDSEC
  0
SECTION
  2
TABLES
  0
TABLE
  2
VPORT
  5
8
330
0
100
AcDbSymbolTable
 70
     1
  0
VPORT
  5
29
330
8
100
AcDbSymbolTableRecord
100
AcDbViewportTableRecord
  2
*Active
 70
     0
 10
0.0
 20
0.0
 11
1.0
 21
1.0
 12
10.42990654205607
 22
4.5
 13
0.0
 23
0.0
 14
0.5
 24
0.5
 15
0.5
 25
0.5
 16
0.0
 26
0.0
 36
1.0
 17
0.0
 27
0.0
 37
0.0
 40
9.0
 41
1.972972972850329
 42
50.0
 43
0.0
 44
0.0
 50
0.0
 51
0.0
 71
     0
 72
   100
 73
     1
 74
     3
 75
     0
 76
     0
 77
     0
 78
     0
281
     0
 65
     1
110
0.0
120
0.0
130
0.0
111
1.0
121
0.0
131
0.0
112
0.0
122
1.0
132
0.0
 79
     0
146
0.0
348
2F
 60
     3
 61
     5
292
     1
282
     1
141
0.0
142
0.0
 63
   250
361
5D
  0
ENDTAB
  0
TABLE
  2
LTYPE
  5
5
330
0
100
AcDbSymbolTable
 70
     1
  0
LTYPE
  5
14
330
5
100
AcDbSymbolTableRecord
100
AcDbLinetypeTableRecord
  2
ByBlock
 70
     0
  3

 72
    65
 73
     0
 40
0.0
  0
LTYPE
  5
15
330
5
100
AcDbSymbolTableRecord
100
AcDbLinetypeTableRecord
  2
ByLayer
 70
     0
  3

 72
    65
 73
     0
 40
0.0
  0
LTYPE
  5
16
330
5
100
AcDbSymbolTableRecord
100
AcDbLinetypeTableRecord
  2
Continuous
 70
     0
  3
Solid line
 72
    65
 73
     0
 40
0.0
  0
ENDTAB
  0
TABLE
  2
LAYER
  5
2
330
0
100
AcDbSymbolTable
 70
     2
  0
LAYER
  5
10
330
2
100
AcDbSymbolTableRecord
100
AcDbLayerTableRecord
  2
0
 70
     0
 62
     7
  6
Continuous
370
    -3
390
F
347
46
348
0
  0
LAYER
  5
60
102
{ACAD_XDICTIONARY
360
61
102
}
330
2
100
AcDbSymbolTableRecord
100
AcDbLayerTableRecord
  2
Layer 1
 70
     0
 62
     7
  6
Continuous
370
    -3
390
F
347
46
348
0
  0
ENDTAB
  0
TABLE
  2
STYLE
  5
3
330
0
100
AcDbSymbolTable
 70
     1
  0
STYLE
  5
11
330
3
100
AcDbSymbolTableRecord
100
AcDbTextStyleTableRecord
  2
Standard
 70
     0
 40
0.0
 41
1.0
 50
0.0
 71
     0
 42
0.2
  3
txt
  4

  0
ENDTAB
  0
TABLE
  2
VIEW
  5
6
330
0
100
AcDbSymbolTable
 70
     0
  0
ENDTAB
  0
TABLE
  2
UCS
  5
7
330
0
100
AcDbSymbolTable
 70
     0
  0
ENDTAB
  0
TABLE
  2
APPID
  5
9
330
0
100
AcDbSymbolTable
 70
     1
  0
APPID
  5
12
330
9
100
AcDbSymbolTableRecord
100
AcDbRegAppTableRecord
  2
ACAD
 70
     0
  0
ENDTAB
  0
TABLE
  2
DIMSTYLE
  5
A
330
0
100
AcDbSymbolTable
 70
     1
100
AcDbDimStyleTable
  0
DIMSTYLE
105
27
330
A
100
AcDbSymbolTableRecord
100
AcDbDimStyleTableRecord
  2
Standard
 70
     0
178
     0
340
11
  0
ENDTAB
  0
TABLE
  2
BLOCK_RECORD
  5
1
330
0
100
AcDbSymbolTable
 70
     1
  0
BLOCK_RECORD
  5
1F
330
1
100
AcDbSymbolTableRecord
100
AcDbBlockTableRecord
  2
*Model_Space
340
22
 70
     0
280
     1
281
     0
  0
BLOCK_RECORD
  5
1B
330
1
100
AcDbSymbolTableRecord
100
AcDbBlockTableRecord
  2
*Paper_Space
340
1E
 70
     0
280
     1
281
     0
  0
BLOCK_RECORD
  5
23
330
1
100
AcDbSymbolTableRecord
100
AcDbBlockTableRecord
  2
*Paper_Space0
340
26
 70
     0
280
     1
281
     0
  0
ENDTAB
  0
ENDSEC
  0
SECTION
  2
BLOCKS
  0
BLOCK
  5
20
330
1F
100
AcDbEntity
  8
0
100
AcDbBlockBegin
  2
*Model_Space
 70
     0
 10
0.0
 20
0.0
 30
0.0
  3
*Model_Space
  1

  0
ENDBLK
  5
21
330
1F
100
AcDbEntity
  8
0
100
AcDbBlockEnd
  0
BLOCK
  5
1C
330
1B
100
AcDbEntity
 67
     1
  8
0
100
AcDbBlockBegin
  2
*Paper_Space
 70
     0
 10
0.0
 20
0.0
 30
0.0
  3
*Paper_Space
  1

  0
ENDBLK
  5
1D
330
1B
100
AcDbEntity
 67
     1
  8
0
100
AcDbBlockEnd
  0
BLOCK
  5
24
330
23
100
AcDbEntity
  8
0
100
AcDbBlockBegin
  2
*Paper_Space0
 70
     0
 10
0.0
 20
0.0
 30
0.0
  3
*Paper_Space0
  1

  0
ENDBLK
  5
25
330
23
100
AcDbEntity
  8
0
100
AcDbBlockEnd
  0
ENDSEC
  0
SECTION
  2
ENTITIES
  0
LWPOLYLINE
  5
64
330
1F
100
AcDbEntity
  8
Layer 1
100
AcDbPolyline
 90
        4
 70
     1
 43
0.0
 10
0.5297180043383918
 20
14.89473969631237
 10
0.5297180043383918
 20
0.5197396963123673
 10
9.779718004338392
 20
0.5197396963123673
 10
9.779718004338392
 20
14.89473969631237
  0
LWPOLYLINE
  5
65
330
1F
100
AcDbEntity
  8
Layer 1
100
AcDbPolyline
 90
        4
 70
     1
 43
0.0
 10
0.3422180043383918
 20
15.08223969631237
 10
9.967218004338392
 20
15.08223969631237
 10
9.967218004338392
 20
0.3322396963123673
 10
0.3422180043383918
 20
0.3322396963123673
  0
LWPOLYLINE
  5
66
330
1F
100
AcDbEntity
  8
Layer 1
100
AcDbPolyline
 90
        9
 70
     1
 43
0.0
 10
5.922245563393517
 20
4.129944420721817
 42
0.2684516386994316
 10
5.816371053354981
 20
4.061481267231181
 42
0.1278598005066414
 10
5.759784273593633
 20
3.831358726794701
 42
0.1012434387799974
 10
5.795705709661881
 20
3.555574601894018
 10
5.804454224810826
 20
3.536775129383233
 42
0.2954753367136162
 10
5.921391232684854
 20
3.451818436469847
 42
0.3126350123525565
 10
6.043151075204534
 20
3.541672767178509
 42
0.0977294946914378
 10
6.084808555519487
 20
3.794763318359611
 42
0.1005727085209406
 10
6.043942413787207
 20
4.041042845918666
 42
0.3124382286307309
  0
LWPOLYLINE
  5
67
330
1F
100
AcDbEntity
  8
Layer 1
100
AcDbPolyline
 90
       11
 70
     1
 43
0.0
 10
5.928808555519495
 20
4.235932609698194
 42
-0.2706732695820696
 10
6.143040838984064
 20
4.119066467965911
 42
-0.123459680328547
 10
6.214741022602731
 20
3.870785409036138
 10
6.217182571267529
 20
3.799908987650949
 42
-0.0998128140214536
 10
6.169774245796747
 20
3.521943386490267
 42
-0.0443367677701854
 10
6.138875484653354
 20
3.464786940406855
 42
-0.2671112394605468
 10
5.914895169692727
 20
3.345751507335989
 42
-0.2645103549163475
 10
5.706477846858078
 20
3.461786940406855
 42
-0.120969581716662
 10
5.631804307104598
 20
3.697117043037138
 42
-0.1259442032954616
 10
5.67651448718741
 20
4.059386969268696
 42
-0.0482332213803263
 10
5.710686508275401
 20
4.119015286863548
 42
-0.2568378747265225
  0
LWPOLYLINE
  5
68
330
1F
100
AcDbEntity
  8
Layer 1
100
AcDbPolyline
 90
        7
 70
     1
 43
0.0
 10
5.13305658701556
 20
4.092680641194257
 10
4.98666288622816
 20
4.01379087741473
 10
4.960040838984057
 20
4.118814499461974
 10
5.152879421661225
 20
4.221633397099769
 10
5.261343988590355
 20
4.221633397099769
 10
5.261343988590355
 20
3.36004678292654
 10
5.13305658701556
 20
3.36004678292654
  0
LWPOLYLINE
  5
69
330
1F
100
AcDbEntity
  8
Layer 1
100
AcDbPolyline
 90
        4
 70
     1
 43
0.0
 10
4.232139264180915
 20
3.697231822296619
 10
4.484395169692718
 20
3.697231822296619
 42
-0.0091869281811766
 10
4.486879421661229
 20
4.071097964028903
 10
4.430670760243899
 20
3.972818436469847
  0
LWPOLYLINE
  5
6A
330
1F
100
AcDbEntity
  8
Layer 1
100
AcDbPolyline
 90
       11
 70
     1
 43
0.0
 10
4.484395169692718
 20
3.589775129383233
 10
4.09225737441713
 20
3.589775129383233
 10
4.09225737441713
 20
3.676688515210005
 10
4.473182571267529
 20
4.221633397099769
 10
4.610233752369894
 20
4.221633397099769
 10
4.610233752369894
 20
3.697231822296619
 10
4.727875484653353
 20
3.697231822296619
 10
4.727875484653353
 20
3.589775129383233
 10
4.610233752369894
 20
3.589775129383233
 10
4.610233752369894
 20
3.36004678292654
 10
4.484395169692718
 20
3.36004678292654
  0
LWPOLYLINE
  5
6B
330
1F
100
AcDbEntity
  8
Layer 1
100
AcDbPolyline
 90
       18
 70
     1
 43
0.0
 10
8.776824303550995
 20
5.395629460091895
 42
-0.0112498817324182
 10
8.679757374417136
 20
5.108042845918667
 10
8.523198319299027
 20
4.677712137257249
 10
8.424666823236024
 20
4.677712137257249
 42
-0.0063196949792611
 10
8.224816429535238
 20
5.278137334107643
 10
8.193292807487992
 20
5.387298751430477
 42
-0.0076245342459939
 10
8.154446350795084
 20
4.67256646796591
 10
8.028505405913194
 20
4.67256646796591
 10
8.091040838984057
 20
5.565279066391107
 10
8.249580209062799
 20
5.565279066391107
 10
8.401229815362015
 20
5.136105838044651
 42
-0.0141529706780712
 10
8.48289123268485
 20
4.866936546706068
 42
-0.0164909525426832
 10
8.568052650007687
 20
5.136192452217879
 10
8.726300681503744
 20
5.565279066391107
 10
8.884808555519498
 20
5.565279066391107
 10
8.94067469725178
 20
4.67256646796591
 10
8.812300681503743
 20
4.67256646796591
 10
8.779950287802961
 20
5.259094027021028
  0
LWPOLYLINE
  5
6C
330
1F
100
AcDbEntity
  8
Layer 1
100
AcDbPolyline
 90
        9
 70
     1
 43
0.0
 10
7.428765248432882
 20
5.469586153005281
 42
0.1706668034179275
 10
7.278324303550988
 20
5.41962552308402
 42
0.1351331913800246
 10
7.187958161818713
 20
5.290605838044651
 42
0.1825291341274244
 10
7.189513279928946
 20
4.942125523084021
 42
0.1326867599297112
 10
7.281493594889568
 20
4.816668830170635
 42
0.3327002000545317
 10
7.574296744495868
 20
4.816424735682446
 42
0.1347462217140416
 10
7.666249500401378
 20
4.943609775052524
 42
0.1845360782482847
 10
7.668647138196661
 20
5.289216074265124
 42
0.1306276348296913
 10
7.578966035834455
 20
5.418097964028902
 42
0.1745146960172998
  0
LWPOLYLINE
  5
6D
330
1F
100
AcDbEntity
  8
Layer 1
100
AcDbPolyline
 90
        7
 70
     1
 43
0.0
 10
7.433619579141535
 20
5.579578278989533
 42
-0.2978468461203185
 10
7.786477846858077
 20
5.362153082139139
 42
-0.2193469521644787
 10
7.779780996464382
 20
4.870389302611581
 42
-0.2863066104507438
 10
7.421292807488001
 20
4.658188515210005
 42
-0.217476024233649
 10
7.131170760243904
 20
4.783889302611581
 42
-0.1811662295997986
 10
7.018588083078555
 20
5.111105838044651
 42
-0.1154487613487897
 10
7.072658949220283
 20
5.357818436469848
 42
-0.2914907432714786
  0
LWPOLYLINE
  5
6E
330
1F
100
AcDbEntity
  8
Layer 1
100
AcDbPolyline
 90
        9
 70
     1
 43
0.0
 10
6.44678887048012
 20
5.469586153005281
 42
0.1706745624312041
 10
6.296343988590365
 20
5.41962552308402
 42
0.1351331913800174
 10
6.205977846858076
 20
5.290605838044651
 42
0.1825291341274
 10
6.207532964968308
 20
4.942125523084021
 42
0.1326867599296475
 10
6.299513279928945
 20
4.816668830170635
 42
0.3326972710271849
 10
6.592316429535245
 20
4.816424735682446
 42
0.1349207572769167
 10
6.685088083078554
 20
4.943609775052524
 42
0.1825821877268938
 10
6.686670760243899
 20
5.289216074265124
 42
0.1306276348297454
 10
6.596989657881693
 20
5.418097964028902
 42
0.174520733292093
  0
LWPOLYLINE
  5
6F
330
1F
100
AcDbEntity
  8
Layer 1
100
AcDbPolyline
 90
        7
 70
     1
 43
0.0
 10
6.451643201188787
 20
5.579578278989533
 42
-0.297835517465852
 10
6.804501468905315
 20
5.362153082139139
 42
-0.2193391293680231
 10
6.797800681503745
 20
4.870389302611581
 42
-0.2867048265483272
 10
6.438497531897454
 20
4.658188515210005
 42
-0.2172583254800317
 10
6.149194382291142
 20
4.783889302611581
 42
-0.1675535951427061
 10
6.038676080551268
 20
5.067058040600322
 42
-0.1311612745491149
 10
6.090678634259646
 20
5.357818436469848
 42
-0.2914866549137217
  0
LWPOLYLINE
  5
70
330
1F
100
AcDbEntity
  8
Layer 1
100
AcDbPolyline
 90
        7
 70
     1
 43
0.0
 10
5.429639264180906
 20
5.458716074265123
 10
5.429639264180906
 20
5.155168830170635
 10
5.535780996464382
 20
5.155168830170635
 42
0.1746110040198794
 10
5.674615642133674
 20
5.198542845918666
 42
0.2267203621232635
 10
5.724532964968319
 20
5.312345995524966
 42
0.2446024082090365
 10
5.672694382291141
 20
5.428818436469848
 42
0.1570968220283259
 10
5.532552650007688
 20
5.466971979776934
 42
0.0479209145240309
  0
LWPOLYLINE
  5
71
330
1F
100
AcDbEntity
  8
Layer 1
100
AcDbPolyline
 90
       17
 70
     1
 43
0.0
 10
5.701824303550993
 20
5.09977119237536
 42
-0.1306720689226822
 10
5.771155012212404
 20
5.040432609698194
 42
-0.0947038989429437
 10
5.820087855493306
 20
4.91934558508684
 10
5.856595957094299
 20
4.770838121509217
 42
0.0687874327545785
 10
5.892225878354139
 20
4.67256646796591
 10
5.755021153944696
 20
4.67256646796591
 42
-0.0631997727932642
 10
5.727277059456497
 20
4.751995601824178
 10
5.693686508275405
 20
4.888660956154887
 42
0.137555583094715
 10
5.637387295676973
 20
5.01284993253284
 42
0.1887991180273441
 10
5.526733752369893
 20
5.051550719934414
 10
5.429639264180906
 20
5.051550719934414
 10
5.429639264180906
 20
4.67256646796591
 10
5.298899106700603
 20
4.67256646796591
 10
5.298899106700603
 20
5.552117649068273
 42
-0.0477012694660923
 10
5.524383358669098
 20
5.571814499461974
 42
-0.0677576930938177
 10
5.678780996464383
 20
5.554405050643076
 42
-0.3577960185561352
 10
5.855273122448622
 20
5.325164893162761
 42
-0.3149198286395042
  0
LWPOLYLINE
  5
72
330
1F
100
AcDbEntity
  8
Layer 1
100
AcDbPolyline
 90
       18
 70
     1
 43
0.0
 10
4.833300681503744
 20
5.468196389225753
 42
0.1970066676786439
 10
4.712320366543111
 20
5.427936546706068
 42
0.4314077823172485
 10
4.715879421661228
 20
5.255326310485596
 42
0.0868967895417272
 10
4.845379421661221
 20
5.185810562454099
 42
-0.1141509326248339
 10
5.016316429535237
 20
5.081696389225753
 42
-0.3976447372249061
 10
4.996304618511616
 20
4.737294814422603
 42
-0.1673333094014576
 10
4.805671732863436
 20
4.662064451591406
 42
-0.1611510896691655
 10
4.525300681503751
 20
4.720330247493469
 10
4.559218004338391
 20
4.832637334107643
 42
0.1388146645402631
 10
4.76706446103131
 20
4.770790877414729
 42
0.1723694112776318
 10
4.89605265000769
 20
4.810239696312367
 42
0.4176265718133203
 10
4.905997531897441
 20
5.005550719934414
 42
0.1038525989407497
 10
4.782005405913196
 20
5.076672767178509
 42
-0.1097584154529907
 10
4.609635327173038
 20
5.175361743556461
 42
-0.4365955310527208
 10
4.626399106700603
 20
5.509912924658824
 42
-0.177905729878968
 10
4.837300681503748
 20
5.579578278989533
 42
-0.1324124446952336
 10
5.041875484653346
 20
5.531814499461974
 10
5.003906980716351
 20
5.422086153005281
 42
0.1405714981386581
  0
LWPOLYLINE
  5
73
330
1F
100
AcDbEntity
  8
Layer 1
100
AcDbPolyline
 90
       18
 70
     1
 43
0.0
 10
4.106206193314776
 20
5.468196389225753
 42
0.1970222476284745
 10
3.985229815362018
 20
5.427936546706068
 42
0.4327935540513522
 10
3.988792807487997
 20
5.255326310485596
 42
0.0867335566438136
 10
4.118292807488004
 20
5.185810562454099
 42
-0.1132313021345126
 10
4.288375484653358
 20
5.08173182229662
 42
-0.4028079177078923
 10
4.268395169692724
 20
4.737294814422603
 42
-0.1673375102189196
 10
4.077767315330595
 20
4.662064451591406
 42
-0.1611727745869398
 10
3.79821406733052
 20
4.720330247493469
 10
3.832174697251773
 20
4.832802688438351
 42
0.1423768125205784
 10
4.039973909850204
 20
4.770790877414729
 42
0.1723919248772799
 10
4.168966035834458
 20
4.810239696312367
 42
0.4194405998839755
 10
4.178143201188789
 20
5.005499538832052
 42
0.1014876056126021
 10
4.054906980716339
 20
5.076676704186383
 42
-0.1102477927977393
 10
3.882580209062795
 20
5.17533024749347
 42
-0.4385870566272491
 10
3.898493594889572
 20
5.509912924658824
 42
-0.1770649941679707
 10
4.109395169692718
 20
5.579578278989533
 42
-0.1338573454451346
 10
4.313918791739965
 20
5.531845995524966
 10
4.276985720873824
 20
5.422314499461973
 42
0.1369669508972054
  0
LWPOLYLINE
  5
74
330
1F
100
AcDbEntity
  8
Layer 1
100
AcDbPolyline
 90
        4
 70
     1
 43
0.0
 10
3.1481707602439
 20
5.053865680564336
 10
3.386147138196662
 20
5.053865680564336
 42
-0.0198901412881776
 10
3.266777059456501
 20
5.425137334107643
 10
3.229966035834451
 20
5.295204263241502
  0
LWPOLYLINE
  5
75
330
1F
100
AcDbEntity
  8
Layer 1
100
AcDbPolyline
 90
        8
 70
     1
 43
0.0
 10
3.415914854732094
 20
4.947637334107643
 10
3.118434539771457
 20
4.947637334107643
 10
3.02775343740926
 20
4.67256646796591
 10
2.891851862606103
 20
4.67256646796591
 10
3.195347925598227
 20
5.565279066391107
 10
3.34466288622815
 20
5.565279066391107
 10
3.648985720873824
 20
4.67256646796591
 10
3.509048712999814
 20
4.67256646796591
  0
LWPOLYLINE
  5
76
330
1F
100
AcDbEntity
  8
Layer 1
100
AcDbPolyline
 90
        6
 70
     1
 43
0.0
 10
2.392202256306902
 20
4.785168830170635
 10
2.766367610637602
 20
4.785168830170635
 10
2.766367610637602
 20
4.67256646796591
 10
2.261462098826584
 20
4.67256646796591
 10
2.261462098826584
 20
5.565279066391107
 10
2.392202256306902
 20
5.565279066391107
  0
LWPOLYLINE
  5
77
330
1F
100
AcDbEntity
  8
Layer 1
100
AcDbPolyline
 90
       17
 70
     1
 43
0.0
 10
2.024048712999814
 20
4.812220011272998
 10
2.051371547645473
 20
4.70536961757221
 42
-0.0774969142765916
 10
1.952052650007687
 20
4.672594027021028
 42
-0.0505755621104428
 10
1.810532964968317
 20
4.659495601824178
 42
-0.1224271466076943
 10
1.584147138196656
 20
4.71148772780843
 42
-0.1476732438951364
 10
1.427702256306901
 20
4.864385365603706
 42
-0.1271615737817039
 10
1.369347925598234
 20
5.111137334107643
 42
-0.2017800502814351
 10
1.498607768117921
 20
5.449979853792682
 42
-0.1990006254057994
 10
1.835009342921069
 20
5.579578278989533
 42
-0.1197837791441091
 10
2.053158949220276
 20
5.535944420721816
 10
2.021218004338394
 20
5.426873554580084
 42
0.1194582931479072
 10
1.83914320118879
 20
5.466971979776934
 42
0.2055753341670948
 10
1.597190445283275
 20
5.375401113635202
 42
0.183335080560542
 10
1.507549731043624
 20
5.147858484261289
 10
1.506623516149418
 20
5.115042845918667
 42
0.1908267635417246
 10
1.592450287802961
 20
4.86488930261158
 42
0.2085854747766933
 10
1.833462098826587
 20
4.772019223871422
 42
0.114950790715583
  0
LWPOLYLINE
  5
78
330
1F
100
AcDbEntity
  8
Layer 1
100
AcDbPolyline
 90
        3
 70
     1
 43
0.0
 10
7.196304618511618
 20
2.864015286863548
 42
-0.6691146721875532
 10
7.129741626385638
 20
2.836452294737564
 42
-0.6691870104792826
 10
7.157304618511617
 20
2.903011349855674
 42
-0.4158056330846348
  0
LWPOLYLINE
  5
79
330
1F
100
AcDbEntity
  8
Layer 1
100
AcDbPolyline
 90
        3
 70
     1
 43
0.0
 10
7.096304618511624
 20
2.864015286863548
 42
-0.6691809364067214
 10
7.029741626385629
 20
2.836452294737564
 42
-0.6691870104792687
 10
7.057304618511623
 20
2.903011349855674
 42
-0.4158871396437857
  0
LWPOLYLINE
  5
7A
330
1F
100
AcDbEntity
  8
Layer 1
100
AcDbPolyline
 90
        3
 70
     1
 43
0.0
 10
7.196304618511618
 20
2.964011349855674
 42
-0.6691699647738135
 10
7.129737689377762
 20
2.936452294737564
 42
-0.6691181334787564
 10
7.157304618511617
 20
3.003011349855674
 42
-0.4158291443912058
  0
LWPOLYLINE
  5
7B
330
1F
100
AcDbEntity
  8
Layer 1
100
AcDbPolyline
 90
        3
 70
     1
 43
0.0
 10
6.795906980716339
 20
2.964011349855674
 42
-0.6692362460258154
 10
6.729340051582483
 20
2.936452294737564
 42
-0.6691181334787544
 10
6.756906980716352
 20
3.003011349855674
 42
-0.4158982586148137
  0
LWPOLYLINE
  5
7C
330
1F
100
AcDbEntity
  8
Layer 1
100
AcDbPolyline
 90
        3
 70
     1
 43
0.0
 10
6.595509342921062
 20
2.864015286863548
 42
-0.6691146721875121
 10
6.528946350795081
 20
2.836452294737564
 42
-0.6691870104792687
 10
6.556509342921075
 20
2.903011349855674
 42
-0.4158056330846473
  0
LWPOLYLINE
  5
7D
330
1F
100
AcDbEntity
  8
Layer 1
100
AcDbPolyline
 90
        3
 70
     1
 43
0.0
 10
6.595509342921062
 20
2.964011349855674
 42
-0.6691699647737556
 10
6.528942413787206
 20
2.936452294737564
 42
-0.6691181334787311
 10
6.556509342921075
 20
3.003011349855674
 42
-0.4158291443911235
  0
LWPOLYLINE
  5
7E
330
1F
100
AcDbEntity
  8
Layer 1
100
AcDbPolyline
 90
        3
 70
     1
 43
0.0
 10
6.495509342921068
 20
2.964011349855674
 42
-0.669236246025609
 10
6.428942413787212
 20
2.936452294737564
 42
-0.6691181334787334
 10
6.456509342921066
 20
3.003011349855674
 42
-0.4158982586149105
  0
LWPOLYLINE
  5
7F
330
1F
100
AcDbEntity
  8
Layer 1
100
AcDbPolyline
 90
        3
 70
     1
 43
0.0
 10
6.295111705125791
 20
2.764015286863548
 42
-0.6691146721875574
 10
6.22854871299981
 20
2.736452294737564
 42
-0.6692472711587593
 10
6.25611170512579
 20
2.803015286863548
 42
-0.4158982586149142
  0
LWPOLYLINE
  5
80
330
1F
100
AcDbEntity
  8
Layer 1
100
AcDbPolyline
 90
        3
 70
     1
 43
0.0
 10
6.195111705125797
 20
2.764015286863548
 42
-0.6691809364068029
 10
6.128548712999816
 20
2.736452294737564
 42
-0.669247271158771
 10
6.156111705125795
 20
2.803015286863548
 42
-0.416000475195181
  0
LWPOLYLINE
  5
81
330
1F
100
AcDbEntity
  8
Layer 1
100
AcDbPolyline
 90
        3
 70
     1
 43
0.0
 10
6.295111705125791
 20
2.864015286863548
 42
-0.6691146721875615
 10
6.22854871299981
 20
2.836452294737564
 42
-0.6691870104792942
 10
6.25611170512579
 20
2.903011349855674
 42
-0.4158056330846348
  0
LWPOLYLINE
  5
82
330
1F
100
AcDbEntity
  8
Layer 1
100
AcDbPolyline
 90
        3
 70
     1
 43
0.0
 10
6.295111705125791
 20
2.964011349855674
 42
-0.6691699647737724
 10
6.228544775991935
 20
2.936452294737564
 42
-0.6691181334787564
 10
6.25611170512579
 20
3.003011349855674
 42
-0.4158291443912058
  0
LWPOLYLINE
  5
83
330
1F
100
AcDbEntity
  8
Layer 1
100
AcDbPolyline
 90
        3
 70
     1
 43
0.0
 10
5.59431642953524
 20
2.764015286863548
 42
-0.6691809364069933
 10
5.52775343740926
 20
2.736452294737564
 42
-0.6692472711587476
 10
5.555316429535239
 20
2.803015286863548
 42
-0.4160004751951596
  0
LWPOLYLINE
  5
84
330
1F
100
AcDbEntity
  8
Layer 1
100
AcDbPolyline
 90
        3
 70
     1
 43
0.0
 10
5.694316429535249
 20
2.964011349855674
 42
-0.6691699647735047
 10
5.627749500401379
 20
2.936452294737564
 42
-0.6691181334787372
 10
5.655316429535247
 20
3.003011349855674
 42
-0.415829144390899
  0
LWPOLYLINE
  5
85
330
1F
100
AcDbEntity
  8
Layer 1
100
AcDbPolyline
 90
        3
 70
     1
 43
0.0
 10
5.59431642953524
 20
2.964011349855674
 42
-0.6692362460256096
 10
5.527749500401384
 20
2.936452294737564
 42
-0.6691181334787448
 10
5.555316429535239
 20
3.003011349855674
 42
-0.4158982586148652
  0
LWPOLYLINE
  5
86
330
1F
100
AcDbEntity
  8
Layer 1
100
AcDbPolyline
 90
        3
 70
     1
 43
0.0
 10
5.293918791739969
 20
2.764015286863548
 42
-0.6691809364067702
 10
5.227355799613989
 20
2.736452294737564
 42
-0.6692472711587827
 10
5.254918791739968
 20
2.803015286863548
 42
-0.4160004751951596
  0
LWPOLYLINE
  5
87
330
1F
100
AcDbEntity
  8
Layer 1
100
AcDbPolyline
 90
        3
 70
     1
 43
0.0
 10
5.393918791739964
 20
2.864015286863548
 42
-0.6691146721875532
 10
5.327355799613983
 20
2.836452294737564
 42
-0.6691870104792942
 10
5.354918791739962
 20
2.903011349855674
 42
-0.4158056330846582
  0
LWPOLYLINE
  5
88
330
1F
100
AcDbEntity
  8
Layer 1
100
AcDbPolyline
 90
        3
 70
     1
 43
0.0
 10
5.293918791739969
 20
2.964011349855674
 42
-0.6692362460256258
 10
5.227351862606113
 20
2.936452294737564
 42
-0.6691181334787798
 10
5.254918791739968
 20
3.003011349855674
 42
-0.4158982586147293
  0
LWPOLYLINE
  5
89
330
1F
100
AcDbEntity
  8
Layer 1
100
AcDbPolyline
 90
        3
 70
     1
 43
0.0
 10
4.993521153944684
 20
2.764015286863548
 42
-0.669180936406985
 10
4.926958161818703
 20
2.736452294737564
 42
-0.6692472711587509
 10
4.954521153944697
 20
2.803015286863548
 42
-0.4160004751952451
  0
LWPOLYLINE
  5
8A
330
1F
100
AcDbEntity
  8
Layer 1
100
AcDbPolyline
 90
        3
 70
     1
 43
0.0
 10
5.093521153944693
 20
2.864015286863548
 42
-0.6691146721873796
 10
5.026958161818712
 20
2.836452294737564
 42
-0.6691870104792942
 10
5.054521153944691
 20
2.903011349855674
 42
-0.4158056330844463
  0
LWPOLYLINE
  5
8B
330
1F
100
AcDbEntity
  8
Layer 1
100
AcDbPolyline
 90
        3
 70
     1
 43
0.0
 10
4.993521153944684
 20
2.964011349855674
 42
-0.6692362460257995
 10
4.926954224810828
 20
2.936452294737564
 42
-0.6691181334787544
 10
4.954521153944697
 20
3.003011349855674
 42
-0.4158982586148361
  0
LWPOLYLINE
  5
8C
330
1F
100
AcDbEntity
  8
Layer 1
100
AcDbPolyline
 90
        3
 70
     1
 43
0.0
 10
4.693123516149413
 20
2.764015286863548
 42
-0.6691809364070176
 10
4.626560524023432
 20
2.736452294737564
 42
-0.6692472711587243
 10
4.654123516149411
 20
2.803015286863548
 42
-0.4160004751953518
  0
LWPOLYLINE
  5
8D
330
1F
100
AcDbEntity
  8
Layer 1
100
AcDbPolyline
 90
        3
 70
     1
 43
0.0
 10
4.793123516149421
 20
2.864015286863548
 42
-0.6691146721873023
 10
4.726560524023427
 20
2.836452294737564
 42
-0.6691870104792687
 10
4.75412351614942
 20
2.903011349855674
 42
-0.4158056330844228
  0
LWPOLYLINE
  5
8E
330
1F
100
AcDbEntity
  8
Layer 1
100
AcDbPolyline
 90
        3
 70
     1
 43
0.0
 10
4.693123516149413
 20
2.864015286863548
 42
-0.6691809364070058
 10
4.626560524023432
 20
2.836452294737564
 42
-0.6691870104792942
 10
4.654123516149411
 20
2.903011349855674
 42
-0.4158871396440321
  0
LWPOLYLINE
  5
8F
330
1F
100
AcDbEntity
  8
Layer 1
100
AcDbPolyline
 90
        3
 70
     1
 43
0.0
 10
4.693123516149413
 20
2.964011349855674
 42
-0.6692362460258322
 10
4.626556587015557
 20
2.936452294737564
 42
-0.6691181334787684
 10
4.654123516149411
 20
3.003011349855674
 42
-0.4158982586149105
  0
LWPOLYLINE
  5
90
330
1F
100
AcDbEntity
  8
Layer 1
100
AcDbPolyline
 90
        3
 70
     1
 43
0.0
 10
4.392725878354142
 20
2.764015286863548
 42
-0.6691809364068029
 10
4.326162886228161
 20
2.736452294737564
 42
-0.6692472711587593
 10
4.35372587835414
 20
2.803015286863548
 42
-0.4160004751951596
  0
LWPOLYLINE
  5
91
330
1F
100
AcDbEntity
  8
Layer 1
100
AcDbPolyline
 90
        3
 70
     1
 43
0.0
 10
4.392725878354142
 20
2.864015286863548
 42
-0.6691809364068321
 10
4.326162886228161
 20
2.836452294737564
 42
-0.6691870104792942
 10
4.35372587835414
 20
2.903011349855674
 42
-0.4158871396437857
  0
LWPOLYLINE
  5
92
330
1F
100
AcDbEntity
  8
Layer 1
100
AcDbPolyline
 90
        3
 70
     1
 43
0.0
 10
4.492725878354136
 20
2.964011349855674
 42
-0.6691699647737472
 10
4.42615894922028
 20
2.936452294737564
 42
-0.6691181334787334
 10
4.453725878354135
 20
3.003011349855674
 42
-0.4158291443912058
  0
LWPOLYLINE
  5
93
330
1F
100
AcDbEntity
  8
Layer 1
100
AcDbPolyline
 90
        3
 70
     1
 43
0.0
 10
4.092328240558871
 20
2.764015286863548
 42
-0.6691809364067255
 10
4.025765248432876
 20
2.736452294737564
 42
-0.6692472711587277
 10
4.053328240558869
 20
2.803015286863548
 42
-0.4160004751950742
  0
LWPOLYLINE
  5
94
330
1F
100
AcDbEntity
  8
Layer 1
100
AcDbPolyline
 90
        3
 70
     1
 43
0.0
 10
4.092328240558871
 20
2.864015286863548
 42
-0.6691809364067046
 10
4.025765248432876
 20
2.836452294737564
 42
-0.6691870104792801
 10
4.053328240558869
 20
2.903011349855674
 42
-0.4158871396437628
  0
LWPOLYLINE
  5
95
330
1F
100
AcDbEntity
  8
Layer 1
100
AcDbPolyline
 90
        3
 70
     1
 43
0.0
 10
4.192328240558865
 20
2.964011349855674
 42
-0.6691699647735576
 10
4.125761311425009
 20
2.936452294737564
 42
-0.6691181334787334
 10
4.153328240558864
 20
3.003011349855674
 42
-0.4158291443909698
  0
LWPOLYLINE
  5
96
330
1F
100
AcDbEntity
  8
Layer 1
100
AcDbPolyline
 90
        3
 70
     1
 43
0.0
 10
3.791930602763586
 20
2.964011349855674
 42
-0.6692362460258154
 10
3.72536367362973
 20
2.936452294737564
 42
-0.6691181334787506
 10
3.752930602763584
 20
3.003011349855674
 42
-0.4158982586149335
  0
LWPOLYLINE
  5
97
330
1F
100
AcDbEntity
  8
Layer 1
100
AcDbPolyline
 90
        3
 70
     1
 43
0.0
 10
3.491532964968314
 20
2.764015286863548
 42
-0.6691809364067868
 10
3.424969972842334
 20
2.736452294737564
 42
-0.6692472711587476
 10
3.452532964968313
 20
2.803015286863548
 42
-0.4160004751951596
  0
LWPOLYLINE
  5
98
330
1F
100
AcDbEntity
  8
Layer 1
100
AcDbPolyline
 90
        3
 70
     1
 43
0.0
 10
3.491532964968314
 20
2.864015286863548
 42
-0.6691809364068154
 10
3.424969972842334
 20
2.836452294737564
 42
-0.6691870104793001
 10
3.452532964968313
 20
2.903011349855674
 42
-0.4158871396437857
  0
LWPOLYLINE
  5
99
330
1F
100
AcDbEntity
  8
Layer 1
100
AcDbPolyline
 90
        3
 70
     1
 43
0.0
 10
3.491532964968314
 20
2.964011349855674
 42
-0.6692362460256258
 10
3.424966035834458
 20
2.936452294737564
 42
-0.6691181334787684
 10
3.452532964968313
 20
3.003011349855674
 42
-0.4158982586147293
  0
LWPOLYLINE
  5
9A
330
1F
100
AcDbEntity
  8
Layer 1
100
AcDbPolyline
 90
        3
 70
     1
 43
0.0
 10
3.291135327173038
 20
2.964011349855674
 42
-0.6691699647735987
 10
3.224568398039182
 20
2.936452294737564
 42
-0.6691181334787564
 10
3.252135327173036
 20
3.003011349855674
 42
-0.4158291443912058
  0
LWPOLYLINE
  5
9B
330
1F
100
AcDbEntity
  8
Layer 1
100
AcDbPolyline
 90
        3
 70
     1
 43
0.0
 10
3.191135327173043
 20
2.964011349855674
 42
-0.669236246025581
 10
3.124568398039173
 20
2.936452294737564
 42
-0.6691181334787544
 10
3.152135327173042
 20
3.003011349855674
 42
-0.4158982586146615
  0
LWPOLYLINE
  5
9C
330
1F
100
AcDbEntity
  8
Layer 1
100
AcDbPolyline
 90
       17
 70
     1
 43
0.0
 10
8.77694241378721
 20
12.51291292465882
 42
-0.0115917147001906
 10
8.68008414607067
 20
12.22593260969819
 10
8.523446350795084
 20
11.79560583804465
 10
8.425158949220275
 20
11.79560583804465
 42
-0.0057976728455282
 10
8.224469972842329
 20
12.39617670418638
 10
8.193702256306892
 20
12.5049011136352
 42
-0.0067521974899224
 10
8.154454224810834
 20
11.79046016875331
 10
8.028592020086421
 20
11.79046016875331
 10
8.090792807488
 20
12.68333418450134
 10
8.249666823236026
 20
12.68333418450134
 10
8.401060524023436
 20
12.25409402702103
 42
-0.0156941602754378
 10
8.4828991067006
 20
11.98523182229662
 42
-0.0195505971078001
 10
8.568395169692721
 20
12.25436568056434
 10
8.726458161818712
 20
12.68333418450134
 10
8.88522194134626
 20
12.68333418450134
 10
8.9409148547321
 20
11.79046016875331
 10
8.812383358669095
 20
11.79046016875331
 42
-0.0097917337764664
  0
LWPOLYLINE
  5
9D
330
1F
100
AcDbEntity
  8
Layer 1
100
AcDbPolyline
 90
        9
 70
     1
 43
0.0
 10
7.428863673629735
 20
12.58755859395016
 42
0.1713453935423818
 10
7.278670760243898
 20
12.5376137120604
 42
0.1346555002456601
 10
7.187962098826574
 20
12.4085074128478
 42
0.18368840929414
 10
7.189513279928946
 20
12.06010583804465
 42
0.1320483011206543
 10
7.281588083078546
 20
11.93463339709977
 42
0.332614107576656
 10
7.574233752369892
 20
11.93433024749347
 42
0.134862976734123
 10
7.66674950040138
 20
12.0615231608793
 42
0.1815043099512313
 10
7.669056587015561
 20
12.4071137120604
 42
0.1308980605218323
 10
7.579064461031308
 20
12.53605859395016
 42
0.1745869542658832
  0
LWPOLYLINE
  5
9E
330
1F
100
AcDbEntity
  8
Layer 1
100
AcDbPolyline
 90
        7
 70
     1
 43
0.0
 10
7.433946350795082
 20
12.69762946009189
 42
-0.2979031274071266
 10
7.786469972842326
 20
12.48007040497378
 42
-0.2203921003364662
 10
7.779536901976186
 20
11.98845229473756
 42
-0.2867100210129843
 10
7.420966035834454
 20
11.77616095615489
 42
-0.2179396615042113
 10
7.1310054059132
 20
11.90178694040685
 42
-0.1693024842099485
 10
7.020312697521092
 20
12.18913859561616
 42
-0.1335520390328259
 10
7.072997531897443
 20
12.4758105624541
 42
-0.2910189334146315
  0
LWPOLYLINE
  5
9F
330
1F
100
AcDbEntity
  8
Layer 1
100
AcDbPolyline
 90
        9
 70
     1
 43
0.0
 10
6.446800681503746
 20
12.58755859395016
 42
0.1711307192718054
 10
6.296682571267525
 20
12.53760583804465
 42
0.1350158059624859
 10
6.205820366543122
 20
12.4085074128478
 42
0.1827399279599575
 10
6.207454224810832
 20
12.06010583804465
 42
0.1322521060269782
 10
6.2996865082754
 20
11.93463733410764
 42
0.3326072786266515
 10
6.592332177566732
 20
11.93432237347772
 42
0.1344632806873001
 10
6.684769185440757
 20
12.0615231608793
 42
0.1820450666763744
 10
6.687080209062799
 20
12.40710583804465
 42
0.1306173627322251
 10
6.597084146070671
 20
12.53606253095804
 42
0.1746137137041648
  0
LWPOLYLINE
  5
A0
330
1F
100
AcDbEntity
  8
Layer 1
100
AcDbPolyline
 90
        7
 70
     1
 43
0.0
 10
6.452048712999812
 20
12.69762946009189
 42
-0.2978621598143022
 10
6.804572335047055
 20
12.48007040497378
 42
-0.2201641974219298
 10
6.7975644610313
 20
11.98846016875331
 42
-0.286944004964146
 10
6.438906980716339
 20
11.77616095615489
 42
-0.2179938542544655
 10
6.148942413787211
 20
11.90179087741473
 42
-0.1691355906271227
 10
6.038412489978437
 20
12.1891564764063
 42
-0.1336894839194886
 10
6.091095957094296
 20
12.47580662544622
 42
-0.2911977630737839
  0
LWPOLYLINE
  5
A1
330
1F
100
AcDbEntity
  8
Layer 1
100
AcDbPolyline
 90
        7
 70
     1
 43
0.0
 10
5.429639264180906
 20
12.57665701914701
 10
5.429639264180906
 20
12.27305859395016
 10
5.53610383111004
 20
12.27305859395016
 42
0.1749534285756481
 10
5.674351862606102
 20
12.31649560182418
 42
0.2264841397924481
 10
5.724698319299023
 20
12.43029875143048
 42
0.2445531668580098
 10
5.672536901976187
 20
12.54679087741473
 42
0.155719845563674
 10
5.532284933472255
 20
12.58494442072181
 42
0.0472151393741328
  0
LWPOLYLINE
  5
A2
330
1F
100
AcDbEntity
  8
Layer 1
100
AcDbPolyline
 90
       17
 70
     1
 43
0.0
 10
5.701458161818707
 20
12.21770820024938
 42
-0.1336447111645025
 10
5.77082824055887
 20
12.15833418450134
 42
-0.0954357336182414
 10
5.818855799613985
 20
12.04163339709977
 10
5.856434539771456
 20
11.8887042632415
 42
0.0667974249998079
 10
5.89246603583446
 20
11.79046016875331
 10
5.755694382291153
 20
11.79046016875331
 42
-0.0713840038360655
 10
5.726887295676974
 20
11.86989323961945
 10
5.693607768117914
 20
12.00662158607615
 42
0.142310866636615
 10
5.637249500401381
 20
12.1307948144226
 42
0.1883908206533499
 10
5.52705265000769
 20
12.1695231608793
 10
5.429639264180906
 20
12.1695231608793
 10
5.429639264180906
 20
11.79046016875331
 10
5.298820366543112
 20
11.79046016875331
 10
5.298820366543112
 20
12.67001528686355
 42
-0.0513141430288766
 10
5.5244581618187
 20
12.68970820024937
 42
-0.0676445181005535
 10
5.67845816181871
 20
12.67229875143048
 42
-0.3579563483408166
 10
5.855434539771466
 20
12.44332237347772
 42
-0.3130285569291165
  0
LWPOLYLINE
  5
A3
330
1F
100
AcDbEntity
  8
Layer 1
100
AcDbPolyline
 90
       18
 70
     1
 43
0.0
 10
4.833458161818712
 20
12.58633024749347
 42
0.1964450738640756
 10
4.712564461031306
 20
12.54590898765095
 42
0.4323504439716994
 10
4.716218004338387
 20
12.3732948144226
 42
0.0871040217134885
 10
4.845540838984064
 20
12.30370032623363
 42
-0.1139476897109601
 10
5.016225878354135
 20
12.19960190103678
 42
-0.4004263432934167
 10
4.996139264180911
 20
11.85518064119426
 42
-0.1665419431788208
 10
4.806316066730248
 20
11.78013274863244
 42
-0.162748163335883
 10
4.525655012212411
 20
11.83842079867457
 10
4.559406980716346
 20
11.95083812150922
 42
0.1418972915040461
 10
4.767155012212413
 20
11.88876331835961
 42
0.1731142484498701
 10
4.896115642133665
 20
11.92811764906827
 42
0.4196822697216282
 10
4.905686508275394
 20
12.1235074128478
 42
0.1040184100496829
 10
4.782328240558869
 20
12.19464520812339
 42
-0.1097557479808094
 10
4.610052650007688
 20
12.2934916648163
 42
-0.4385683762355985
 10
4.626151075204533
 20
12.62779875143048
 42
-0.1773925809289705
 10
4.837221941346272
 20
12.69762946009189
 42
-0.1329882897911412
 10
5.041489657881698
 20
12.64976331835961
 10
5.004481783865955
 20
12.54038930261158
 42
0.1346315491471028
  0
LWPOLYLINE
  5
A4
330
1F
100
AcDbEntity
  8
Layer 1
100
AcDbPolyline
 90
       18
 70
     1
 43
0.0
 10
4.105958161818705
 20
12.58633024749347
 42
0.1962403014718059
 10
3.985076272054926
 20
12.5459168616667
 42
0.4313994265379247
 10
3.988552650007676
 20
12.3732948144226
 42
0.0869322274291998
 10
4.118048712999808
 20
12.30370032623363
 42
-0.1136390751877715
 10
4.288556587015563
 20
12.19960977505253
 42
-0.4014748582402881
 10
4.268639264180905
 20
11.85518064119426
 42
-0.1665388585340101
 10
4.078817189247919
 20
11.78013274863244
 42
-0.1628245188015767
 10
3.798155012212405
 20
11.83842079867457
 10
3.831910917724215
 20
11.95083812150922
 42
0.1418946360317214
 10
4.039655012212407
 20
11.88876331835961
 42
0.1731392953590184
 10
4.168702256306901
 20
11.92811764906827
 42
0.4186245290532153
 10
4.178190445283278
 20
12.1235074128478
 42
0.1040184100496712
 10
4.054832177566738
 20
12.19464520812339
 42
-0.1096506777630366
 10
3.882560524023432
 20
12.2934916648163
 42
-0.4386670919908876
 10
3.898658949220277
 20
12.62780268843835
 42
-0.1772273235259644
 10
4.109721941346265
 20
12.69762946009189
 42
-0.1329723100969726
 10
4.313989657881706
 20
12.64976331835961
 10
4.276981783865949
 20
12.54038930261158
 42
0.1347771760367488
  0
LWPOLYLINE
  5
A5
330
1F
100
AcDbEntity
  8
Layer 1
100
AcDbPolyline
 90
        4
 70
     1
 43
0.0
 10
3.148166823236025
 20
12.17183812150922
 10
3.386521153944685
 20
12.17183812150922
 42
-0.0216611882118076
 10
3.266725878354137
 20
12.54295229473756
 10
3.229875484653348
 20
12.41323182229662
  0
LWPOLYLINE
  5
A6
330
1F
100
AcDbEntity
  8
Layer 1
100
AcDbPolyline
 90
        8
 70
     1
 43
0.0
 10
3.416001468905321
 20
12.06560977505253
 10
3.118757374417129
 20
12.06560977505253
 10
3.027832177566737
 20
11.79046016875331
 10
2.89193847677933
 20
11.79046016875331
 10
3.195261311425
 20
12.68333418450134
 10
3.344584146070673
 20
12.68333418450134
 10
3.649155012212404
 20
11.79046016875331
 10
3.509462098826575
 20
11.79046016875331
  0
LWPOLYLINE
  5
A7
330
1F
100
AcDbEntity
  8
Layer 1
100
AcDbPolyline
 90
        6
 70
     1
 43
0.0
 10
2.392284933472254
 20
11.90306253095804
 10
2.76612351614942
 20
11.90306253095804
 10
2.76612351614942
 20
11.79046016875331
 10
2.261466035834459
 20
11.79046016875331
 10
2.261466035834459
 20
12.68333418450134
 10
2.392284933472254
 20
12.68333418450134
  0
LWPOLYLINE
  5
A8
330
1F
100
AcDbEntity
  8
Layer 1
100
AcDbPolyline
 90
       17
 70
     1
 43
0.0
 10
2.023993594889575
 20
11.93022788528874
 10
2.051832177566737
 20
11.82326725536749
 42
-0.0747093162501522
 10
1.952040838984061
 20
11.79064520812339
 42
-0.0501323051009314
 10
1.81021406733052
 20
11.77746804276906
 42
-0.1225382522120611
 10
1.584387295676976
 20
11.82938930261158
 42
-0.1470345948713166
 10
1.427469972842331
 20
11.9824168616667
 42
-0.1278406130739884
 10
1.369103831110039
 20
12.22904678292654
 42
-0.2003973959922256
 10
1.498442413787217
 20
12.56786568056433
 42
-0.1985999148866606
 10
1.834930602763592
 20
12.69762946009189
 42
-0.1183145240554303
 10
2.053371547645483
 20
12.65397985379268
 10
2.020918791739973
 20
12.54490505064308
 42
0.1212117200593274
 10
1.83890304370847
 20
12.58494442072181
 42
0.2053151594636936
 10
1.597584146070673
 20
12.49327906639111
 42
0.183164792976085
 10
1.507539763400143
 20
12.26689720448235
 10
1.506462098826574
 20
12.23290505064308
 42
0.1920009730500138
 10
1.592202256306891
 20
11.98278694040686
 42
0.2083688225067226
 10
1.833710130322643
 20
11.89015308213914
 42
0.1164644855352988
  0
LWPOLYLINE
  5
A9
330
1F
100
AcDbEntity
  8
Layer 1
100
AcDbPolyline
 90
        7
 70
     1
 43
0.0
 10
5.939800681503741
 20
11.21056646796591
 10
5.793556587015559
 20
11.13175544434386
 10
5.767123516149411
 20
11.2367042632415
 10
5.95961564213367
 20
11.33960977505252
 10
6.06808808307855
 20
11.33960977505252
 10
6.06808808307855
 20
10.4780231608793
 10
5.939800681503741
 20
10.4780231608793
  0
LWPOLYLINE
  5
AA
330
1F
100
AcDbEntity
  8
Layer 1
100
AcDbPolyline
 90
        7
 70
     1
 43
0.0
 10
5.281745563393514
 20
11.21064914513127
 10
5.135611705125797
 20
11.13176331835961
 10
5.108887295676979
 20
11.23669638922575
 10
5.301395169692725
 20
11.33960977505252
 10
5.40987154764548
 20
11.33960977505252
 10
5.40987154764548
 20
10.4780231608793
 10
5.281745563393514
 20
10.4780231608793
  0
LWPOLYLINE
  5
AB
330
1F
100
AcDbEntity
  8
Layer 1
100
AcDbPolyline
 90
        4
 70
     1
 43
0.0
 10
4.381418791739961
 20
10.81512552308402
 10
4.63341091772422
 20
10.81512552308402
 42
-0.0082483666015105
 10
4.635635327173034
 20
11.18869638922575
 10
4.57984005158248
 20
11.09078300339898
  0
LWPOLYLINE
  5
AC
330
1F
100
AcDbEntity
  8
Layer 1
100
AcDbPolyline
 90
       11
 70
     1
 43
0.0
 10
4.63341091772422
 20
10.70766883017064
 10
4.241351862606109
 20
10.70766883017064
 10
4.241351862606109
 20
10.79465701914701
 10
4.622029027960437
 20
11.33960977505252
 10
4.758918791739973
 20
11.33960977505252
 10
4.758918791739973
 20
10.81512552308402
 10
4.877135327173036
 20
10.81512552308402
 10
4.877135327173036
 20
10.70766883017064
 10
4.758918791739973
 20
10.70766883017064
 10
4.758918791739973
 20
10.4780231608793
 10
4.63341091772422
 20
10.4780231608793
  0
LWPOLYLINE
  5
AD
330
1F
100
AcDbEntity
  8
Layer 1
100
AcDbPolyline
 90
        3
 70
     1
 43
0.0
 10
7.146304618511621
 20
10.08901134985567
 42
-0.6692362460256088
 10
7.079737689377765
 20
10.06145229473756
 42
-0.6691181334787237
 10
7.10730461851162
 20
10.12801134985567
 42
-0.4158982586147064
  0
LWPOLYLINE
  5
AE
330
1F
100
AcDbEntity
  8
Layer 1
100
AcDbPolyline
 90
        3
 70
     1
 43
0.0
 10
6.84590698071635
 20
10.08901134985567
 42
-0.6692362460255319
 10
6.77934005158248
 20
10.06145229473756
 42
-0.6691181334788092
 10
6.806906980716349
 20
10.12801134985567
 42
-0.4158982586147064
  0
LWPOLYLINE
  5
AF
330
1F
100
AcDbEntity
  8
Layer 1
100
AcDbPolyline
 90
        3
 70
     1
 43
0.0
 10
6.645509342921073
 20
9.989015286863548
 42
-0.6691146721872979
 10
6.578946350795079
 20
9.961452294737564
 42
-0.66918701047929
 10
6.606509342921072
 20
10.02801134985567
 42
-0.4158056330843994
  0
LWPOLYLINE
  5
B0
330
1F
100
AcDbEntity
  8
Layer 1
100
AcDbPolyline
 90
        3
 70
     1
 43
0.0
 10
6.645509342921073
 20
10.08901134985567
 42
-0.6691699647736479
 10
6.578942413787217
 20
10.06145229473756
 42
-0.669118133478981
 10
6.606509342921072
 20
10.12801134985567
 42
-0.4158291443910406
  0
LWPOLYLINE
  5
B1
330
1F
100
AcDbEntity
  8
Layer 1
100
AcDbPolyline
 90
        3
 70
     1
 43
0.0
 10
6.545509342921065
 20
10.08901134985567
 42
-0.6692362460258068
 10
6.478942413787209
 20
10.06145229473756
 42
-0.6691181334787237
 10
6.506509342921063
 20
10.12801134985567
 42
-0.4158982586149335
  0
LWPOLYLINE
  5
B2
330
1F
100
AcDbEntity
  8
Layer 1
100
AcDbPolyline
 90
        3
 70
     1
 43
0.0
 10
6.345111705125788
 20
9.889015286863549
 42
-0.6691146721875403
 10
6.278548712999807
 20
9.861452294737564
 42
-0.6692472711586935
 10
6.306111705125787
 20
9.928015286863548
 42
-0.4158982586149105
  0
LWPOLYLINE
  5
B3
330
1F
100
AcDbEntity
  8
Layer 1
100
AcDbPolyline
 90
        3
 70
     1
 43
0.0
 10
6.245111705125794
 20
9.889015286863549
 42
-0.6691809364068445
 10
6.178548712999813
 20
9.861452294737564
 42
-0.6692472711587397
 10
6.206111705125792
 20
9.928015286863548
 42
-0.416000475195156
  0
LWPOLYLINE
  5
B4
330
1F
100
AcDbEntity
  8
Layer 1
100
AcDbPolyline
 90
        3
 70
     1
 43
0.0
 10
6.345111705125788
 20
9.989015286863548
 42
-0.6691146721874741
 10
6.278548712999807
 20
9.961452294737564
 42
-0.6691870104791465
 10
6.306111705125787
 20
10.02801134985567
 42
-0.4158056330846817
  0
LWPOLYLINE
  5
B5
330
1F
100
AcDbEntity
  8
Layer 1
100
AcDbPolyline
 90
        3
 70
     1
 43
0.0
 10
6.345111705125788
 20
10.08901134985567
 42
-0.6691699647737469
 10
6.278544775991932
 20
10.06145229473756
 42
-0.6691181334785955
 10
6.306111705125787
 20
10.12801134985567
 42
-0.4158291443912532
  0
LWPOLYLINE
  5
B6
330
1F
100
AcDbEntity
  8
Layer 1
100
AcDbPolyline
 90
        3
 70
     1
 43
0.0
 10
5.644316429535237
 20
9.889015286863549
 42
-0.6691809364069763
 10
5.577753437409257
 20
9.861452294737564
 42
-0.669247271158623
 10
5.605316429535236
 20
9.928015286863548
 42
-0.4160004751953482
  0
LWPOLYLINE
  5
B7
330
1F
100
AcDbEntity
  8
Layer 1
100
AcDbPolyline
 90
        3
 70
     1
 43
0.0
 10
5.744316429535246
 20
10.08901134985567
 42
-0.6691699647736146
 10
5.67774950040139
 20
10.06145229473756
 42
-0.6691181334790391
 10
5.705316429535245
 20
10.12801134985567
 42
-0.4158291443910406
  0
LWPOLYLINE
  5
B8
330
1F
100
AcDbEntity
  8
Layer 1
100
AcDbPolyline
 90
        3
 70
     1
 43
0.0
 10
5.644316429535237
 20
10.08901134985567
 42
-0.6692362460258068
 10
5.577749500401382
 20
10.06145229473756
 42
-0.6691181334785955
 10
5.605316429535236
 20
10.12801134985567
 42
-0.4158982586149335
  0
LWPOLYLINE
  5
B9
330
1F
100
AcDbEntity
  8
Layer 1
100
AcDbPolyline
 90
        3
 70
     1
 43
0.0
 10
5.343918791739966
 20
9.889015286863549
 42
-0.669180936406811
 10
5.277355799613986
 20
9.861452294737564
 42
-0.6692472711587867
 10
5.304918791739965
 20
9.928015286863548
 42
-0.416000475195156
  0
LWPOLYLINE
  5
BA
330
1F
100
AcDbEntity
  8
Layer 1
100
AcDbPolyline
 90
        3
 70
     1
 43
0.0
 10
5.443918791739961
 20
9.989015286863548
 42
-0.6691146721875075
 10
5.37735579961398
 20
9.961452294737564
 42
-0.6691870104793136
 10
5.404918791739973
 20
10.02801134985567
 42
-0.415805633084553
  0
LWPOLYLINE
  5
BB
330
1F
100
AcDbEntity
  8
Layer 1
100
AcDbPolyline
 90
        3
 70
     1
 43
0.0
 10
5.343918791739966
 20
10.08901134985567
 42
-0.6692362460256421
 10
5.27735186260611
 20
10.06145229473756
 42
-0.6691181334786891
 10
5.304918791739965
 20
10.12801134985567
 42
-0.4158982586147746
  0
LWPOLYLINE
  5
BC
330
1F
100
AcDbEntity
  8
Layer 1
100
AcDbPolyline
 90
        3
 70
     1
 43
0.0
 10
5.043521153944695
 20
9.889015286863549
 42
-0.6691809364067666
 10
4.9769581618187
 20
9.861452294737564
 42
-0.6692472711584635
 10
5.004521153944694
 20
9.928015286863548
 42
-0.4160004751951132
  0
LWPOLYLINE
  5
BD
330
1F
100
AcDbEntity
  8
Layer 1
100
AcDbPolyline
 90
        3
 70
     1
 43
0.0
 10
5.14352115394469
 20
9.989015286863548
 42
-0.6691146721876393
 10
5.076958161818709
 20
9.961452294737564
 42
-0.6691870104792751
 10
5.104521153944688
 20
10.02801134985567
 42
-0.4158056330846348
  0
LWPOLYLINE
  5
BE
330
1F
100
AcDbEntity
  8
Layer 1
100
AcDbPolyline
 90
        3
 70
     1
 43
0.0
 10
5.043521153944695
 20
10.08901134985567
 42
-0.6692362460256421
 10
4.976954224810839
 20
10.06145229473756
 42
-0.6691181334789925
 10
5.004521153944694
 20
10.12801134985567
 42
-0.4158982586146615
  0
LWPOLYLINE
  5
BF
330
1F
100
AcDbEntity
  8
Layer 1
100
AcDbPolyline
 90
        3
 70
     1
 43
0.0
 10
4.74312351614941
 20
9.889015286863549
 42
-0.6691809364069433
 10
4.676560524023429
 20
9.861452294737564
 42
-0.669247271158635
 10
4.704123516149409
 20
9.928015286863548
 42
-0.4160004751953482
  0
LWPOLYLINE
  5
C0
330
1F
100
AcDbEntity
  8
Layer 1
100
AcDbPolyline
 90
        3
 70
     1
 43
0.0
 10
4.843123516149419
 20
9.989015286863548
 42
-0.6691146721873096
 10
4.776560524023438
 20
9.961452294737564
 42
-0.6691870104792631
 10
4.804123516149417
 20
10.02801134985567
 42
-0.4158056330844463
  0
LWPOLYLINE
  5
C1
330
1F
100
AcDbEntity
  8
Layer 1
100
AcDbPolyline
 90
        3
 70
     1
 43
0.0
 10
4.74312351614941
 20
9.989015286863548
 42
-0.669180936407009
 10
4.676560524023429
 20
9.961452294737564
 42
-0.6691870104791349
 10
4.704123516149409
 20
10.02801134985567
 42
-0.4158871396440321
  0
LWPOLYLINE
  5
C2
330
1F
100
AcDbEntity
  8
Layer 1
100
AcDbPolyline
 90
        3
 70
     1
 43
0.0
 10
4.74312351614941
 20
10.08901134985567
 42
-0.6692362460258402
 10
4.676556587015554
 20
10.06145229473756
 42
-0.6691181334785721
 10
4.704123516149409
 20
10.12801134985567
 42
-0.4158982586149782
  0
LWPOLYLINE
  5
C3
330
1F
100
AcDbEntity
  8
Layer 1
100
AcDbPolyline
 90
        3
 70
     1
 43
0.0
 10
4.442725878354139
 20
9.889015286863549
 42
-0.6691809364070423
 10
4.376162886228158
 20
9.861452294737564
 42
-0.6692472711587397
 10
4.403725878354138
 20
9.928015286863548
 42
-0.416000475195156
  0
LWPOLYLINE
  5
C4
330
1F
100
AcDbEntity
  8
Layer 1
100
AcDbPolyline
 90
        3
 70
     1
 43
0.0
 10
4.442725878354139
 20
9.989015286863548
 42
-0.6691809364070752
 10
4.376162886228158
 20
9.961452294737564
 42
-0.6691870104792866
 10
4.403725878354138
 20
10.02801134985567
 42
-0.4158871396439874
  0
LWPOLYLINE
  5
C5
330
1F
100
AcDbEntity
  8
Layer 1
100
AcDbPolyline
 90
        3
 70
     1
 43
0.0
 10
4.542725878354133
 20
10.08901134985567
 42
-0.6691699647737143
 10
4.476158949220277
 20
10.06145229473756
 42
-0.6691181334787859
 10
4.503725878354146
 20
10.12801134985567
 42
-0.4158291443911235
  0
LWPOLYLINE
  5
C6
330
1F
100
AcDbEntity
  8
Layer 1
100
AcDbPolyline
 90
        3
 70
     1
 43
0.0
 10
4.142328240558868
 20
9.889015286863549
 42
-0.6691809364067666
 10
4.075765248432873
 20
9.861452294737564
 42
-0.6692472711585217
 10
4.103328240558866
 20
9.928015286863548
 42
-0.416000475195156
  0
LWPOLYLINE
  5
C7
330
1F
100
AcDbEntity
  8
Layer 1
100
AcDbPolyline
 90
        3
 70
     1
 43
0.0
 10
4.142328240558868
 20
9.989015286863548
 42
-0.6691809364067666
 10
4.075765248432873
 20
9.961452294737564
 42
-0.6691870104792668
 10
4.103328240558866
 20
10.02801134985567
 42
-0.4158871396437628
  0
LWPOLYLINE
  5
C8
330
1F
100
AcDbEntity
  8
Layer 1
100
AcDbPolyline
 90
        3
 70
     1
 43
0.0
 10
4.242328240558862
 20
10.08901134985567
 42
-0.6691699647737469
 10
4.175761311425006
 20
10.06145229473756
 42
-0.6691181334787824
 10
4.203328240558861
 20
10.12801134985567
 42
-0.4158291443912292
  0
LWPOLYLINE
  5
C9
330
1F
100
AcDbEntity
  8
Layer 1
100
AcDbPolyline
 90
        3
 70
     1
 43
0.0
 10
3.841930602763583
 20
10.08901134985567
 42
-0.6692362460258068
 10
3.775363673629727
 20
10.06145229473756
 42
-0.6691181334787509
 10
3.802930602763595
 20
10.12801134985567
 42
-0.4158982586148137
  0
LWPOLYLINE
  5
CA
330
1F
100
AcDbEntity
  8
Layer 1
100
AcDbPolyline
 90
        3
 70
     1
 43
0.0
 10
3.541532964968312
 20
9.889015286863549
 42
-0.6691809364070423
 10
3.474969972842331
 20
9.861452294737564
 42
-0.6692472711586993
 10
3.50253296496831
 20
9.928015286863548
 42
-0.416000475195156
  0
LWPOLYLINE
  5
CB
330
1F
100
AcDbEntity
  8
Layer 1
100
AcDbPolyline
 90
        3
 70
     1
 43
0.0
 10
3.541532964968312
 20
9.989015286863548
 42
-0.6691809364070423
 10
3.474969972842331
 20
9.961452294737564
 42
-0.6691870104793333
 10
3.50253296496831
 20
10.02801134985567
 42
-0.4158871396440545
  0
LWPOLYLINE
  5
CC
330
1F
100
AcDbEntity
  8
Layer 1
100
AcDbPolyline
 90
        3
 70
     1
 43
0.0
 10
3.541532964968312
 20
10.08901134985567
 42
-0.6692362460256088
 10
3.474966035834456
 20
10.06145229473756
 42
-0.6691181334787473
 10
3.50253296496831
 20
10.12801134985567
 42
-0.4158982586149105
  0
LWPOLYLINE
  5
CD
330
1F
100
AcDbEntity
  8
Layer 1
100
AcDbPolyline
 90
        3
 70
     1
 43
0.0
 10
3.341135327173035
 20
10.08901134985567
 42
-0.6691699647738132
 10
3.274568398039179
 20
10.06145229473756
 42
-0.6691181334787473
 10
3.302135327173033
 20
10.12801134985567
 42
-0.4158291443912292
  0
LWPOLYLINE
  5
CE
330
1F
100
AcDbEntity
  8
Layer 1
100
AcDbPolyline
 90
        3
 70
     1
 43
0.0
 10
3.241135327173041
 20
10.08901134985567
 42
-0.6692362460256421
 10
3.174568398039185
 20
10.06145229473756
 42
-0.6691181334787415
 10
3.202135327173039
 20
10.12801134985567
 42
-0.4158982586147522
  0
ENDSEC
  0
SECTION
  2
OBJECTS
  0
DICTIONARY
  5
C
330
0
100
AcDbDictionary
281
     1
  3
ACAD_DETAILVIEWSTYLE
350
D6
  3
ACAD_GROUP
350
D
  3
ACAD_LAYOUT
350
1A
  3
ACAD_MATERIAL
350
43
  3
ACAD_MLEADERSTYLE
350
5B
  3
ACAD_MLINESTYLE
350
17
  3
ACAD_PLOTSETTINGS
350
19
  3
ACAD_PLOTSTYLENAME
350
E
  3
ACAD_SCALELIST
350
47
  3
ACAD_SECTIONVIEWSTYLE
350
D7
  3
ACAD_TABLESTYLE
350
59
  3
ACAD_VISUALSTYLE
350
2A
  3
ACDB_RECOMPOSE_DATA
350
D3
  3
AcDbVariableDictionary
350
CF
  3
ER_DRAWINGS
350
5E
  0
SUN
  5
5D
330
29
100
AcDbSun
 90
        1
290
     0
 63
     7
421
 16777215
 40
1.0
291
     1
 91
  2455826
 92
 54000000
292
     0
 70
     2
 71
   256
280
     1
  0
DICTIONARY
  5
61
330
60
100
AcDbDictionary
280
     1
281
     1
  3
ER_DRAWING_ID
360
63
  3
ER_OBJECT_UID
360
62
  0
DICTIONARY
  5
D6
102
{ACAD_REACTORS
330
C
102
}
330
C
100
AcDbDictionary
281
     1
  0
DICTIONARY
  5
D
102
{ACAD_REACTORS
330
C
102
}
330
C
100
AcDbDictionary
281
     1
  0
DICTIONARY
  5
1A
102
{ACAD_REACTORS
330
C
102
}
330
C
100
AcDbDictionary
281
     1
  3
Layout1
350
1E
  3
Layout2
350
26
  3
Model
350
22
  0
DICTIONARY
  5
43
102
{ACAD_REACTORS
330
C
102
}
330
C
100
AcDbDictionary
281
     1
  3
ByBlock
350
45
  3
ByLayer
350
44
  3
Global
350
46
  0
DICTIONARY
  5
5B
102
{ACAD_REACTORS
330
C
102
}
330
C
100
AcDbDictionary
281
     1
  3
Standard
350
5C
  0
DICTIONARY
  5
17
102
{ACAD_REACTORS
330
C
102
}
330
C
100
AcDbDictionary
281
     1
  3
Standard
350
18
  0
DICTIONARY
  5
19
102
{ACAD_REACTORS
330
C
102
}
330
C
100
AcDbDictionary
281
     1
  0
ACDBDICTIONARYWDFLT
  5
E
102
{ACAD_REACTORS
330
C
102
}
330
C
100
AcDbDictionary
281
     1
  3
Normal
350
F
100
AcDbDictionaryWithDefault
340
F
  0
DICTIONARY
  5
47
102
{ACAD_REACTORS
330
C
102
}
330
C
100
AcDbDictionary
281
     1
  3
A0
350
48
  3
A1
350
49
  3
A2
350
4A
  3
A3
350
4B
  3
A4
350
4C
  3
A5
350
4D
  3
A6
350
4E
  3
A7
350
4F
  3
A8
350
50
  3
A9
350
51
  3
B1
350
52
  3
B2
350
53
  3
B3
350
54
  3
B4
350
55
  3
B5
350
56
  3
B6
350
57
  3
B7
350
58
  0
DICTIONARY
  5
D7
102
{ACAD_REACTORS
330
C
102
}
330
C
100
AcDbDictionary
281
     1
  0
DICTIONARY
  5
59
102
{ACAD_REACTORS
330
C
102
}
330
C
100
AcDbDictionary
281
     1
  3
Standard
350
5A
  0
DICTIONARY
  5
2A
102
{ACAD_REACTORS
330
C
102
}
330
C
100
AcDbDictionary
281
     1
  3
2dWireframe
350
2F
  3
Basic
350
32
  3
Brighten
350
36
  3
ColorChange
350
3A
  3
Conceptual
350
34
  3
Dim
350
35
  3
EdgeColorOff
350
3D
  3
Facepattern
350
39
  3
Flat
350
2B
  3
FlatWithEdges
350
2C
  3
Gouraud
350
2D
  3
GouraudWithEdges
350
2E
  3
Hidden
350
31
  3
JitterOff
350
3B
  3
Linepattern
350
38
  3
OverhangOff
350
3C
  3
Realistic
350
33
  3
Shaded
350
42
  3
Shaded with edges
350
41
  3
Shades of Gray
350
3E
  3
Sketchy
350
3F
  3
Thicken
350
37
  3
Wireframe
350
30
  3
X-Ray
350
40
  0
XRECORD
  5
D3
102
{ACAD_REACTORS
330
C
102
}
330
C
100
AcDbXrecord
280
     1
 90
        1
330
5A
  0
DICTIONARY
  5
CF
102
{ACAD_REACTORS
330
C
102
}
330
C
100
AcDbDictionary
281
     1
  3
CANNOSCALE
350
D0
  3
CMLEADERSTYLE
350
D5
  3
CTABLESTYLE
350
D4
  0
DICTIONARY
  5
5E
102
{ACAD_REACTORS
330
C
102
}
330
C
100
AcDbDictionary
281
     1
  3
*A1
350
5F
  0
XRECORD
  5
63
102
{ACAD_REACTORS
330
61
102
}
330
61
100
AcDbXrecord
280
     1
  5
5F
  0
XRECORD
  5
62
102
{ACAD_REACTORS
330
61
102
}
330
61
100
AcDbXrecord
280
     1
1071
       -1
  0
LAYOUT
  5
1E
102
{ACAD_REACTORS
330
1A
102
}
330
1A
100
AcDbPlotSettings
  1

  2
none_device
  4

  6

 40
0.0
 41
0.0
 42
0.0
 43
0.0
 44
0.0
 45
0.0
 46
0.0
 47
0.0
 48
0.0
 49
0.0
140
0.0
141
0.0
142
1.0
143
1.0
 70
   688
 72
     0
 73
     0
 74
     5
  7

 75
    16
 76
     0
 77
     2
 78
   300
147
1.0
148
0.0
149
0.0
100
AcDbLayout
  1
Layout1
 70
     1
 71
     1
 10
0.0
 20
0.0
 11
12.0
 21
9.0
 12
0.0
 22
0.0
 32
0.0
 14
1.000000000000000E+20
 24
1.000000000000000E+20
 34
1.000000000000000E+20
 15
-1.000000000000000E+20
 25
-1.000000000000000E+20
 35
-1.000000000000000E+20
146
0.0
 13
0.0
 23
0.0
 33
0.0
 16
1.0
 26
0.0
 36
0.0
 17
0.0
 27
1.0
 37
0.0
 76
     0
330
1B
  0
LAYOUT
  5
26
102
{ACAD_REACTORS
330
1A
102
}
330
1A
100
AcDbPlotSettings
  1

  2
none_device
  4

  6

 40
0.0
 41
0.0
 42
0.0
 43
0.0
 44
0.0
 45
0.0
 46
0.0
 47
0.0
 48
0.0
 49
0.0
140
0.0
141
0.0
142
1.0
143
1.0
 70
   688
 72
     0
 73
     0
 74
     5
  7

 75
    16
 76
     0
 77
     2
 78
   300
147
1.0
148
0.0
149
0.0
100
AcDbLayout
  1
Layout2
 70
     1
 71
     2
 10
0.0
 20
0.0
 11
0.0
 21
0.0
 12
0.0
 22
0.0
 32
0.0
 14
0.0
 24
0.0
 34
0.0
 15
0.0
 25
0.0
 35
0.0
146
0.0
 13
0.0
 23
0.0
 33
0.0
 16
1.0
 26
0.0
 36
0.0
 17
0.0
 27
1.0
 37
0.0
 76
     0
330
23
  0
LAYOUT
  5
22
102
{ACAD_REACTORS
330
1A
102
}
330
1A
100
AcDbPlotSettings
  1

  2
none_device
  4
Letter_(8.50_x_11.00_Inches)
  6

 40
6.35
 41
6.35
 42
6.35000508
 43
6.35000508
 44
215.9
 45
279.4
 46
0.0
 47
0.0
 48
0.0
 49
0.0
140
0.0
141
0.0
142
1.0
143
1.0
 70
  1712
 72
     0
 73
     0
 74
     0
  7

 75
     0
 76
     0
 77
     2
 78
   300
147
1.0
148
0.0
149
0.0
100
AcDbLayout
  1
Model
 70
     1
 71
     0
 10
0.0
 20
0.0
 11
12.0
 21
9.0
 12
0.0
 22
0.0
 32
0.0
 14
1.000000000000000E+20
 24
1.000000000000000E+20
 34
1.000000000000000E+20
 15
-1.000000000000000E+20
 25
-1.000000000000000E+20
 35
-1.000000000000000E+20
146
0.0
 13
0.0
 23
0.0
 33
0.0
 16
1.0
 26
0.0
 36
0.0
 17
0.0
 27
1.0
 37
0.0
 76
     0
330
1F
331
29
  0
MATERIAL
  5
45
102
{ACAD_REACTORS
330
43
102
}
330
43
100
AcDbMaterial
  1
ByBlock
 72
     1
 94
      127
  0
MATERIAL
  5
44
102
{ACAD_REACTORS
330
43
102
}
330
43
100
AcDbMaterial
  1
ByLayer
 72
     1
 94
      127
  0
MATERIAL
  5
46
102
{ACAD_REACTORS
330
43
102
}
330
43
100
AcDbMaterial
  1
Global
 72
     1
 94
      127
  0
MLEADERSTYLE
  5
5C
102
{ACAD_REACTORS
330
5B
102
}
330
5B
100
AcDbMLeaderStyle
179
     2
170
     2
171
     1
172
     0
 90
        2
 40
0.0
 41
0.0
173
     1
 91
-1056964608
340
14
 92
       -2
290
     1
 42
0.09
291
     1
 43
0.36
  3
Standard
341
0
 44
0.18
300

342
11
174
     1
178
     6
175
     1
176
     0
 93
-1056964608
 45
0.18
292
     0
297
     0
 46
0.18
343
0
 94
-1056964608
 47
1.0
 49
1.0
140
1.0
293
     1
141
0.0
294
     1
177
     0
142
1.0
295
     0
296
     0
143
0.125
271
     0
272
     9
273
     9
298
     0
  0
MLINESTYLE
  5
18
102
{ACAD_REACTORS
330
17
102
}
330
17
100
AcDbMlineStyle
  2
Standard
 70
     0
  3

 62
   256
 51
90.0
 52
90.0
 71
     2
 49
0.5
 62
   256
  6
BYLAYER
 49
-0.5
 62
   256
  6
BYLAYER
  0
ACDBPLACEHOLDER
  5
F
102
{ACAD_REACTORS
330
E
102
}
330
E
  0
SCALE
  5
48
102
{ACAD_REACTORS
330
47
102
}
330
47
100
AcDbScale
 70
     0
300
1:1
140
1.0
141
1.0
290
     1
  0
SCALE
  5
49
102
{ACAD_REACTORS
330
47
102
}
330
47
100
AcDbScale
 70
     0
300
1/128" = 1'-0"
140
0.0078125
141
12.0
290
     0
  0
SCALE
  5
4A
102
{ACAD_REACTORS
330
47
102
}
330
47
100
AcDbScale
 70
     0
300
1/64" = 1'-0"
140
0.015625
141
12.0
290
     0
  0
SCALE
  5
4B
102
{ACAD_REACTORS
330
47
102
}
330
47
100
AcDbScale
 70
     0
300
1/32" = 1'-0"
140
0.03125
141
12.0
290
     0
  0
SCALE
  5
4C
102
{ACAD_REACTORS
330
47
102
}
330
47
100
AcDbScale
 70
     0
300
1/16" = 1'-0"
140
0.0625
141
12.0
290
     0
  0
SCALE
  5
4D
102
{ACAD_REACTORS
330
47
102
}
330
47
100
AcDbScale
 70
     0
300
3/32" = 1'-0"
140
0.09375
141
12.0
290
     0
  0
SCALE
  5
4E
102
{ACAD_REACTORS
330
47
102
}
330
47
100
AcDbScale
 70
     0
300
1/8" = 1'-0"
140
0.125
141
12.0
290
     0
  0
SCALE
  5
4F
102
{ACAD_REACTORS
330
47
102
}
330
47
100
AcDbScale
 70
     0
300
3/16" = 1'-0"
140
0.1875
141
12.0
290
     0
  0
SCALE
  5
50
102
{ACAD_REACTORS
330
47
102
}
330
47
100
AcDbScale
 70
     0
300
1/4" = 1'-0"
140
0.25
141
12.0
290
     0
  0
SCALE
  5
51
102
{ACAD_REACTORS
330
47
102
}
330
47
100
AcDbScale
 70
     0
300
3/8" = 1'-0"
140
0.375
141
12.0
290
     0
  0
SCALE
  5
52
102
{ACAD_REACTORS
330
47
102
}
330
47
100
AcDbScale
 70
     0
300
1/2" = 1'-0"
140
0.5
141
12.0
290
     0
  0
SCALE
  5
53
102
{ACAD_REACTORS
330
47
102
}
330
47
100
AcDbScale
 70
     0
300
3/4" = 1'-0"
140
0.75
141
12.0
290
     0
  0
SCALE
  5
54
102
{ACAD_REACTORS
330
47
102
}
330
47
100
AcDbScale
 70
     0
300
1" = 1'-0"
140
1.0
141
12.0
290
     0
  0
SCALE
  5
55
102
{ACAD_REACTORS
330
47
102
}
330
47
100
AcDbScale
 70
     0
300
1-1/2" = 1'-0"
140
1.5
141
12.0
290
     0
  0
SCALE
  5
56
102
{ACAD_REACTORS
330
47
102
}
330
47
100
AcDbScale
 70
     0
300
3" = 1'-0"
140
3.0
141
12.0
290
     0
  0
SCALE
  5
57
102
{ACAD_REACTORS
330
47
102
}
330
47
100
AcDbScale
 70
     0
300
6" = 1'-0"
140
6.0
141
12.0
290
     0
  0
SCALE
  5
58
102
{ACAD_REACTORS
330
47
102
}
330
47
100
AcDbScale
 70
     0
300
1'-0" = 1'-0"
140
12.0
141
12.0
290
     0
  0
TABLESTYLE
  5
5A
102
{ACAD_REACTORS
330
59
102
}
102
{ACAD_XDICTIONARY
360
D1
102
}
330
59
100
AcDbTableStyle
  3
Standard
 70
     0
 71
     0
 40
0.06
 41
0.06
280
     0
281
     0
  7
Standard
140
0.18
170
     2
 62
     0
 63
   257
283
     0
 90
        4
 91
        0
  1

274
    -2
284
     1
 64
     0
275
    -2
285
     1
 65
     0
276
    -2
286
     1
 66
     0
277
    -2
287
     1
 67
     0
278
    -2
288
     1
 68
     0
279
    -2
289
     1
 69
     0
  7
Standard
140
0.25
170
     5
 62
     0
 63
   257
283
     0
 90
        4
 91
        0
  1

274
    -2
284
     1
 64
     0
275
    -2
285
     1
 65
     0
276
    -2
286
     1
 66
     0
277
    -2
287
     1
 67
     0
278
    -2
288
     1
 68
     0
279
    -2
289
     1
 69
     0
  7
Standard
140
0.18
170
     5
 62
     0
 63
   257
283
     0
 90
        4
 91
        0
  1

274
    -2
284
     1
 64
     0
275
    -2
285
     1
 65
     0
276
    -2
286
     1
 66
     0
277
    -2
287
     1
 67
     0
278
    -2
288
     1
 68
     0
279
    -2
289
     1
 69
     0
  0
VISUALSTYLE
  5
2F
102
{ACAD_REACTORS
330
2A
102
}
330
2A
100
AcDbVisualStyle
  2
2dWireframe
 70
     4
177
     3
291
     0
 70
    58
 90
        0
176
     1
 90
        2
176
     1
 90
        0
176
     1
 90
        0
176
     1
 40
0.6
176
     1
 40
30.0
176
     1
 62
     7
420
 16777215
176
     1
 90
        1
176
     1
 90
        4
176
     1
 62
     7
176
     1
 62
   257
176
     1
 90
        1
176
     1
 90
        1
176
     1
 40
1.0
176
     1
 90
        0
176
     1
 62
   257
176
     1
 40
1.0
176
     1
 90
        1
176
     1
 90
        6
176
     1
 90
        2
176
     1
 62
     7
176
     1
 90
        5
176
     1
 90
        0
176
     1
 90
        0
176
     1
290
     0
176
     1
 90
        1
176
     1
 40
0.0
176
     1
 90
        0
176
     1
290
     1
176
     1
290
     1
176
     1
290
     0
176
     1
290
     0
176
     1
290
     0
176
     1
290
     0
176
     1
290
     0
176
     1
290
     0
176
     1
290
     0
176
     1
 90
       50
176
     1
 40
0.0
176
     1
 40
1.0
176
     1
 90
        0
176
     1
 62
    18
420
        0
176
     1
 90
       50
176
     1
 90
        3
176
     1
 62
     5
420
      255
176
     1
290
     0
176
     1
 90
       50
176
     1
 90
       50
176
     1
 90
       50
176
     1
290
     0
176
     1
 90
       50
176
     1
 62
   256
176
     0
 40
1.0
176
     0
 90
        2
176
     1
  1
strokes_ogs.tif
176
     1
290
     0
176
     1
 40
1.0
176
     1
 40
1.0
176
     1
  0
VISUALSTYLE
  5
32
102
{ACAD_REACTORS
330
2A
102
}
330
2A
100
AcDbVisualStyle
  2
Basic
 70
     7
177
     3
291
     1
 70
    58
 90
        1
176
     1
 90
        0
176
     1
 90
        1
176
     1
 90
        0
176
     1
 40
0.6
176
     1
 40
30.0
176
     1
 62
     7
420
 16777215
176
     1
 90
        0
176
     1
 90
        4
176
     1
 62
     7
176
     1
 62
   257
176
     1
 90
        1
176
     1
 90
        1
176
     1
 40
1.0
176
     1
 90
        8
176
     1
 62
     7
176
     1
 40
1.0
176
     1
 90
        1
176
     1
 90
        6
176
     1
 90
        2
176
     1
 62
     7
176
     1
 90
        5
176
     1
 90
        0
176
     1
 90
        0
176
     1
290
     0
176
     1
 90
        1
176
     1
 40
0.0
176
     1
 90
        0
176
     1
290
     0
176
     1
290
     1
176
     1
290
     1
176
     1
290
     0
176
     1
290
     0
176
     1
290
     0
176
     1
290
     0
176
     1
290
     0
176
     1
290
     0
176
     1
 90
       50
176
     1
 40
0.0
176
     1
 40
1.0
176
     1
 90
        0
176
     1
 62
    18
420
        0
176
     1
 90
       50
176
     1
 90
        3
176
     1
 62
     5
420
      255
176
     1
290
     0
176
     1
 90
       50
176
     1
 90
       50
176
     1
 90
       50
176
     1
290
     0
176
     1
 90
       50
176
     1
 62
   256
176
     0
 40
1.0
176
     0
 90
        2
176
     1
  1
strokes_ogs.tif
176
     1
290
     0
176
     1
 40
1.0
176
     1
 40
1.0
176
     1
  0
VISUALSTYLE
  5
36
102
{ACAD_REACTORS
330
2A
102
}
330
2A
100
AcDbVisualStyle
  2
Brighten
 70
    12
177
     3
291
     1
 70
    58
 90
        2
176
     1
 90
        2
176
     1
 90
        0
176
     1
 90
        0
176
     1
 40
0.6
176
     1
 40
30.0
176
     1
 62
     7
420
 16777215
176
     1
 90
        1
176
     1
 90
        4
176
     1
 62
     7
176
     1
 62
   257
176
     1
 90
        1
176
     1
 90
        1
176
     1
 40
1.0
176
     1
 90
        8
176
     1
 62
     7
176
     1
 40
1.0
176
     1
 90
        1
176
     1
 90
        6
176
     1
 90
        2
176
     1
 62
     7
176
     1
 90
        5
176
     1
 90
        0
176
     1
 90
        0
176
     1
290
     0
176
     1
 90
        1
176
     1
 40
50.0
176
     1
 90
        0
176
     1
290
     0
176
     1
290
     1
176
     1
290
     1
176
     1
290
     0
176
     1
290
     0
176
     1
290
     0
176
     1
290
     0
176
     1
290
     0
176
     1
290
     0
176
     1
 90
       50
176
     1
 40
0.0
176
     1
 40
1.0
176
     1
 90
        0
176
     1
 62
    18
420
        0
176
     1
 90
       50
176
     1
 90
        3
176
     1
 62
     5
420
      255
176
     1
290
     0
176
     1
 90
       50
176
     1
 90
       50
176
     1
 90
       50
176
     1
290
     0
176
     1
 90
       50
176
     1
 62
   256
176
     0
 40
1.0
176
     0
 90
        2
176
     1
  1
strokes_ogs.tif
176
     1
290
     0
176
     1
 40
1.0
176
     1
 40
1.0
176
     1
  0
VISUALSTYLE
  5
3A
102
{ACAD_REACTORS
330
2A
102
}
330
2A
100
AcDbVisualStyle
  2
ColorChange
 70
    16
177
     3
291
     1
 70
    58
 90
        2
176
     1
 90
        2
176
     1
 90
        3
176
     1
 90
        0
176
     1
 40
0.6
176
     1
 40
30.0
176
     1
 62
     8
420
  8421504
176
     1
 90
        1
176
     1
 90
        4
176
     1
 62
     7
176
     1
 62
   257
176
     1
 90
        1
176
     1
 90
        1
176
     1
 40
1.0
176
     1
 90
        8
176
     1
 62
     8
420
  8421504
176
     1
 40
1.0
176
     1
 90
        1
176
     1
 90
        6
176
     1
 90
        2
176
     1
 62
     7
176
     1
 90
        5
176
     1
 90
        0
176
     1
 90
        0
176
     1
290
     0
176
     1
 90
        1
176
     1
 40
0.0
176
     1
 90
        0
176
     1
290
     0
176
     1
290
     1
176
     1
290
     1
176
     1
290
     0
176
     1
290
     0
176
     1
290
     0
176
     1
290
     0
176
     1
290
     0
176
     1
290
     0
176
     1
 90
       50
176
     1
 40
0.0
176
     1
 40
1.0
176
     1
 90
        0
176
     1
 62
    18
420
        0
176
     1
 90
       50
176
     1
 90
        3
176
     1
 62
     5
420
      255
176
     1
290
     0
176
     1
 90
       50
176
     1
 90
       50
176
     1
 90
       50
176
     1
290
     0
176
     1
 90
       50
176
     1
 62
   256
176
     0
 40
1.0
176
     0
 90
        2
176
     1
  1
strokes_ogs.tif
176
     1
290
     0
176
     1
 40
1.0
176
     1
 40
1.0
176
     1
  0
VISUALSTYLE
  5
34
102
{ACAD_REACTORS
330
2A
102
}
330
2A
100
AcDbVisualStyle
  2
Conceptual
 70
     9
177
     3
291
     0
 70
    58
 90
        3
176
     1
 90
        2
176
     1
 90
        0
176
     1
 90
        0
176
     1
 40
0.6
176
     1
 40
30.0
176
     1
 62
     7
420
 16777215
176
     1
 90
        2
176
     1
 90
        2
176
     1
 62
     7
176
     1
 62
   257
176
     1
 90
        1
176
     1
 90
        1
176
     1
 40
179.0
176
     1
 90
        8
176
     1
 62
     7
176
     1
 40
1.0
176
     1
 90
        1
176
     1
 90
        6
176
     1
 90
        2
176
     1
 62
     7
176
     1
 90
        3
176
     1
 90
        0
176
     1
 90
        0
176
     1
290
     0
176
     1
 90
        1
176
     1
 40
0.0
176
     1
 90
        0
176
     1
290
     0
176
     1
290
     1
176
     1
290
     1
176
     1
290
     0
176
     1
290
     0
176
     1
290
     0
176
     1
290
     0
176
     1
290
     0
176
     1
290
     0
176
     1
 90
       50
176
     1
 40
0.0
176
     1
 40
1.0
176
     1
 90
        0
176
     1
 62
    18
420
        0
176
     1
 90
       50
176
     1
 90
        3
176
     1
 62
     5
420
      255
176
     1
290
     0
176
     1
 90
       50
176
     1
 90
       50
176
     1
 90
       50
176
     1
290
     0
176
     1
 90
       50
176
     1
 62
   256
176
     0
 40
1.0
176
     0
 90
        2
176
     1
  1
strokes_ogs.tif
176
     1
290
     0
176
     1
 40
1.0
176
     1
 40
1.0
176
     1
  0
VISUALSTYLE
  5
35
102
{ACAD_REACTORS
330
2A
102
}
330
2A
100
AcDbVisualStyle
  2
Dim
 70
    11
177
     3
291
     1
 70
    58
 90
        2
176
     1
 90
        2
176
     1
 90
        0
176
     1
 90
        0
176
     1
 40
0.6
176
     1
 40
30.0
176
     1
 62
     7
420
 16777215
176
     1
 90
        1
176
     1
 90
        4
176
     1
 62
     7
176
     1
 62
   257
176
     1
 90
        1
176
     1
 90
        1
176
     1
 40
1.0
176
     1
 90
        8
176
     1
 62
     7
176
     1
 40
1.0
176
     1
 90
        1
176
     1
 90
        6
176
     1
 90
        2
176
     1
 62
     7
176
     1
 90
        5
176
     1
 90
        0
176
     1
 90
        0
176
     1
290
     0
176
     1
 90
        1
176
     1
 40
-50.0
176
     1
 90
        0
176
     1
290
     0
176
     1
290
     1
176
     1
290
     1
176
     1
290
     0
176
     1
290
     0
176
     1
290
     0
176
     1
290
     0
176
     1
290
     0
176
     1
290
     0
176
     1
 90
       50
176
     1
 40
0.0
176
     1
 40
1.0
176
     1
 90
        0
176
     1
 62
    18
420
        0
176
     1
 90
       50
176
     1
 90
        3
176
     1
 62
     5
420
      255
176
     1
290
     0
176
     1
 90
       50
176
     1
 90
       50
176
     1
 90
       50
176
     1
290
     0
176
     1
 90
       50
176
     1
 62
   256
176
     0
 40
1.0
176
     0
 90
        2
176
     1
  1
strokes_ogs.tif
176
     1
290
     0
176
     1
 40
1.0
176
     1
 40
1.0
176
     1
  0
VISUALSTYLE
  5
3D
102
{ACAD_REACTORS
330
2A
102
}
330
2A
100
AcDbVisualStyle
  2
EdgeColorOff
 70
    22
177
     3
291
     1
 70
    58
 90
        2
176
     0
 90
        2
176
     0
 90
        0
176
     0
 90
        0
176
     0
 40
0.6
176
     0
 40
30.0
176
     0
 62
     7
420
 16777215
176
     0
 90
        1
176
     0
 90
        4
176
     0
 62
     7
176
     0
 62
   257
176
     0
 90
        1
176
     0
 90
        1
176
     0
 40
1.0
176
     0
 90
        8
176
     2
 62
     7
176
     0
 40
1.0
176
     0
 90
        1
176
     0
 90
        6
176
     0
 90
        2
176
     0
 62
     7
176
     0
 90
        5
176
     0
 90
        0
176
     0
 90
        0
176
     0
290
     0
176
     0
 90
        1
176
     0
 40
0.0
176
     0
 90
        0
176
     0
290
     0
176
     0
290
     1
176
     0
290
     1
176
     0
290
     0
176
     0
290
     0
176
     0
290
     0
176
     0
290
     0
176
     0
290
     0
176
     0
290
     0
176
     0
 90
       50
176
     0
 40
0.0
176
     0
 40
1.0
176
     0
 90
        0
176
     0
 62
    18
420
        0
176
     0
 90
       50
176
     0
 90
        3
176
     0
 62
     5
420
      255
176
     0
290
     0
176
     0
 90
       50
176
     0
 90
       50
176
     0
 90
       50
176
     0
290
     0
176
     0
 90
       50
176
     0
 62
   256
176
     0
 40
1.0
176
     0
 90
        2
176
     0
  1
strokes_ogs.tif
176
     0
290
     0
176
     0
 40
1.0
176
     0
 40
1.0
176
     0
  0
VISUALSTYLE
  5
39
102
{ACAD_REACTORS
330
2A
102
}
330
2A
100
AcDbVisualStyle
  2
Facepattern
 70
    15
177
     3
291
     1
 70
    58
 90
        2
176
     1
 90
        2
176
     1
 90
        0
176
     1
 90
        0
176
     1
 40
0.6
176
     1
 40
30.0
176
     1
 62
     7
420
 16777215
176
     1
 90
        1
176
     1
 90
        4
176
     1
 62
     7
176
     1
 62
   257
176
     1
 90
        1
176
     1
 90
        1
176
     1
 40
1.0
176
     1
 90
        8
176
     1
 62
     7
176
     1
 40
1.0
176
     1
 90
        1
176
     1
 90
        6
176
     1
 90
        2
176
     1
 62
     7
176
     1
 90
        5
176
     1
 90
        0
176
     1
 90
        0
176
     1
290
     0
176
     1
 90
        1
176
     1
 40
0.0
176
     1
 90
        0
176
     1
290
     0
176
     1
290
     1
176
     1
290
     1
176
     1
290
     0
176
     1
290
     0
176
     1
290
     0
176
     1
290
     0
176
     1
290
     0
176
     1
290
     0
176
     1
 90
       50
176
     1
 40
0.0
176
     1
 40
1.0
176
     1
 90
        0
176
     1
 62
    18
420
        0
176
     1
 90
       50
176
     1
 90
        3
176
     1
 62
     5
420
      255
176
     1
290
     0
176
     1
 90
       50
176
     1
 90
       50
176
     1
 90
       50
176
     1
290
     0
176
     1
 90
       50
176
     1
 62
   256
176
     0
 40
1.0
176
     0
 90
        2
176
     1
  1
strokes_ogs.tif
176
     1
290
     0
176
     1
 40
1.0
176
     1
 40
1.0
176
     1
  0
VISUALSTYLE
  5
2B
102
{ACAD_REACTORS
330
2A
102
}
330
2A
100
AcDbVisualStyle
  2
Flat
 70
     0
177
     3
291
     1
 70
    58
 90
        2
176
     1
 90
        1
176
     1
 90
        1
176
     1
 90
        2
176
     1
 40
0.6
176
     1
 40
30.0
176
     1
 62
     7
420
 16777215
176
     1
 90
        0
176
     1
 90
        0
176
     1
 62
     7
176
     1
 62
   257
176
     1
 90
        1
176
     1
 90
        1
176
     1
 40
1.0
176
     1
 90
        8
176
     1
 62
     7
176
     1
 40
1.0
176
     1
 90
        1
176
     1
 90
        6
176
     1
 90
        2
176
     1
 62
     7
176
     1
 90
        5
176
     1
 90
        0
176
     1
 90
        0
176
     1
290
     0
176
     1
 90
       13
176
     1
 40
0.0
176
     1
 90
        0
176
     1
290
     0
176
     1
290
     1
176
     1
290
     1
176
     1
290
     0
176
     1
290
     0
176
     1
290
     0
176
     1
290
     0
176
     1
290
     0
176
     1
290
     0
176
     1
 90
       50
176
     1
 40
0.0
176
     1
 40
1.0
176
     1
 90
        0
176
     1
 62
    18
420
        0
176
     1
 90
       50
176
     1
 90
        3
176
     1
 62
     5
420
      255
176
     1
290
     0
176
     1
 90
       50
176
     1
 90
       50
176
     1
 90
       50
176
     1
290
     0
176
     1
 90
       50
176
     1
 62
   256
176
     0
 40
1.0
176
     0
 90
        2
176
     1
  1
strokes_ogs.tif
176
     1
290
     0
176
     1
 40
1.0
176
     1
 40
1.0
176
     1
  0
VISUALSTYLE
  5
2C
102
{ACAD_REACTORS
330
2A
102
}
330
2A
100
AcDbVisualStyle
  2
FlatWithEdges
 70
     1
177
     3
291
     1
 70
    58
 90
        2
176
     1
 90
        1
176
     1
 90
        1
176
     1
 90
        2
176
     1
 40
0.6
176
     1
 40
30.0
176
     1
 62
     7
420
 16777215
176
     1
 90
        1
176
     1
 90
        0
176
     1
 62
     7
176
     1
 62
   257
176
     1
 90
        1
176
     1
 90
        1
176
     1
 40
1.0
176
     1
 90
        0
176
     1
 62
   257
176
     1
 40
1.0
176
     1
 90
        1
176
     1
 90
        6
176
     1
 90
        2
176
     1
 62
     7
176
     1
 90
        5
176
     1
 90
        0
176
     1
 90
        0
176
     1
290
     0
176
     1
 90
       13
176
     1
 40
0.0
176
     1
 90
        0
176
     1
290
     0
176
     1
290
     1
176
     1
290
     1
176
     1
290
     0
176
     1
290
     0
176
     1
290
     0
176
     1
290
     0
176
     1
290
     0
176
     1
290
     0
176
     1
 90
       50
176
     1
 40
0.0
176
     1
 40
1.0
176
     1
 90
        0
176
     1
 62
    18
420
        0
176
     1
 90
       50
176
     1
 90
        3
176
     1
 62
     5
420
      255
176
     1
290
     0
176
     1
 90
       50
176
     1
 90
       50
176
     1
 90
       50
176
     1
290
     0
176
     1
 90
       50
176
     1
 62
   256
176
     0
 40
1.0
176
     0
 90
        2
176
     1
  1
strokes_ogs.tif
176
     1
290
     0
176
     1
 40
1.0
176
     1
 40
1.0
176
     1
  0
VISUALSTYLE
  5
2D
102
{ACAD_REACTORS
330
2A
102
}
330
2A
100
AcDbVisualStyle
  2
Gouraud
 70
     2
177
     3
291
     1
 70
    58
 90
        2
176
     1
 90
        2
176
     1
 90
        1
176
     1
 90
        2
176
     1
 40
0.6
176
     1
 40
30.0
176
     1
 62
     7
420
 16777215
176
     1
 90
        0
176
     1
 90
        0
176
     1
 62
     7
176
     1
 62
   257
176
     1
 90
        1
176
     1
 90
        1
176
     1
 40
1.0
176
     1
 90
        0
176
     1
 62
     7
176
     1
 40
1.0
176
     1
 90
        1
176
     1
 90
        6
176
     1
 90
        2
176
     1
 62
     7
176
     1
 90
        5
176
     1
 90
        0
176
     1
 90
        0
176
     1
290
     0
176
     1
 90
       13
176
     1
 40
0.0
176
     1
 90
        0
176
     1
290
     0
176
     1
290
     1
176
     1
290
     1
176
     1
290
     0
176
     1
290
     0
176
     1
290
     0
176
     1
290
     0
176
     1
290
     0
176
     1
290
     0
176
     1
 90
       50
176
     1
 40
0.0
176
     1
 40
1.0
176
     1
 90
        0
176
     1
 62
    18
420
        0
176
     1
 90
       50
176
     1
 90
        3
176
     1
 62
     5
420
      255
176
     1
290
     0
176
     1
 90
       50
176
     1
 90
       50
176
     1
 90
       50
176
     1
290
     0
176
     1
 90
       50
176
     1
 62
   256
176
     0
 40
1.0
176
     0
 90
        2
176
     1
  1
strokes_ogs.tif
176
     1
290
     0
176
     1
 40
1.0
176
     1
 40
1.0
176
     1
  0
VISUALSTYLE
  5
2E
102
{ACAD_REACTORS
330
2A
102
}
330
2A
100
AcDbVisualStyle
  2
GouraudWithEdges
 70
     3
177
     3
291
     1
 70
    58
 90
        2
176
     1
 90
        2
176
     1
 90
        1
176
     1
 90
        2
176
     1
 40
0.6
176
     1
 40
30.0
176
     1
 62
     7
420
 16777215
176
     1
 90
        1
176
     1
 90
        0
176
     1
 62
     7
176
     1
 62
   257
176
     1
 90
        1
176
     1
 90
        1
176
     1
 40
1.0
176
     1
 90
        0
176
     1
 62
   257
176
     1
 40
1.0
176
     1
 90
        1
176
     1
 90
        6
176
     1
 90
        2
176
     1
 62
     7
176
     1
 90
        5
176
     1
 90
        0
176
     1
 90
        0
176
     1
290
     0
176
     1
 90
       13
176
     1
 40
0.0
176
     1
 90
        0
176
     1
290
     0
176
     1
290
     1
176
     1
290
     1
176
     1
290
     0
176
     1
290
     0
176
     1
290
     0
176
     1
290
     0
176
     1
290
     0
176
     1
290
     0
176
     1
 90
       50
176
     1
 40
0.0
176
     1
 40
1.0
176
     1
 90
        0
176
     1
 62
    18
420
        0
176
     1
 90
       50
176
     1
 90
        3
176
     1
 62
     5
420
      255
176
     1
290
     0
176
     1
 90
       50
176
     1
 90
       50
176
     1
 90
       50
176
     1
290
     0
176
     1
 90
       50
176
     1
 62
   256
176
     0
 40
1.0
176
     0
 90
        2
176
     1
  1
strokes_ogs.tif
176
     1
290
     0
176
     1
 40
1.0
176
     1
 40
1.0
176
     1
  0
VISUALSTYLE
  5
31
102
{ACAD_REACTORS
330
2A
102
}
330
2A
100
AcDbVisualStyle
  2
Hidden
 70
     6
177
     3
291
     0
 70
    58
 90
        1
176
     1
 90
        2
176
     1
 90
        2
176
     1
 90
        0
176
     1
 40
0.6
176
     1
 40
30.0
176
     1
 62
     7
420
 16777215
176
     1
 90
        2
176
     1
 90
        2
176
     1
 62
     7
176
     1
 62
   257
176
     1
 90
        2
176
     1
 90
        1
176
     1
 40
40.0
176
     1
 90
        0
176
     1
 62
   257
176
     1
 40
1.0
176
     1
 90
        1
176
     1
 90
        6
176
     1
 90
        2
176
     1
 62
     7
176
     1
 90
        3
176
     1
 90
        0
176
     1
 90
        0
176
     1
290
     0
176
     1
 90
        1
176
     1
 40
0.0
176
     1
 90
        0
176
     1
290
     0
176
     1
290
     1
176
     1
290
     1
176
     1
290
     0
176
     1
290
     0
176
     1
290
     0
176
     1
290
     0
176
     1
290
     0
176
     1
290
     0
176
     1
 90
       50
176
     1
 40
0.0
176
     1
 40
1.0
176
     1
 90
        0
176
     1
 62
    18
420
        0
176
     1
 90
       50
176
     1
 90
        3
176
     1
 62
     5
420
      255
176
     1
290
     0
176
     1
 90
       50
176
     1
 90
       50
176
     1
 90
       50
176
     1
290
     0
176
     1
 90
       50
176
     1
 62
   256
176
     0
 40
1.0
176
     0
 90
        2
176
     1
  1
strokes_ogs.tif
176
     1
290
     0
176
     1
 40
1.0
176
     1
 40
1.0
176
     1
  0
VISUALSTYLE
  5
3B
102
{ACAD_REACTORS
330
2A
102
}
330
2A
100
AcDbVisualStyle
  2
JitterOff
 70
    20
177
     3
291
     1
 70
    58
 90
        2
176
     0
 90
        2
176
     0
 90
        0
176
     0
 90
        0
176
     0
 40
0.6
176
     0
 40
30.0
176
     0
 62
     7
420
 16777215
176
     0
 90
        1
176
     0
 90
        4
176
     0
 62
     7
176
     0
 62
   257
176
     0
 90
        1
176
     0
 90
        1
176
     0
 40
1.0
176
     0
 90
       10
176
     2
 62
     7
176
     0
 40
1.0
176
     0
 90
        1
176
     0
 90
        6
176
     0
 90
        2
176
     0
 62
     7
176
     0
 90
        5
176
     0
 90
        0
176
     0
 90
        0
176
     0
290
     0
176
     0
 90
        1
176
     0
 40
0.0
176
     0
 90
        0
176
     0
290
     0
176
     0
290
     1
176
     0
290
     1
176
     0
290
     0
176
     0
290
     0
176
     0
290
     0
176
     0
290
     0
176
     0
290
     0
176
     0
290
     0
176
     0
 90
       50
176
     0
 40
0.0
176
     0
 40
1.0
176
     0
 90
        0
176
     0
 62
    18
420
        0
176
     0
 90
       50
176
     0
 90
        3
176
     0
 62
     5
420
      255
176
     0
290
     0
176
     0
 90
       50
176
     0
 90
       50
176
     0
 90
       50
176
     0
290
     0
176
     0
 90
       50
176
     0
 62
   256
176
     0
 40
1.0
176
     0
 90
        2
176
     0
  1
strokes_ogs.tif
176
     0
290
     0
176
     0
 40
1.0
176
     0
 40
1.0
176
     0
  0
VISUALSTYLE
  5
38
102
{ACAD_REACTORS
330
2A
102
}
330
2A
100
AcDbVisualStyle
  2
Linepattern
 70
    14
177
     3
291
     1
 70
    58
 90
        2
176
     1
 90
        2
176
     1
 90
        0
176
     1
 90
        0
176
     1
 40
0.6
176
     1
 40
30.0
176
     1
 62
     7
420
 16777215
176
     1
 90
        1
176
     1
 90
        4
176
     1
 62
     7
176
     1
 62
   257
176
     1
 90
        7
176
     1
 90
        7
176
     1
 40
1.0
176
     1
 90
        8
176
     1
 62
     7
176
     1
 40
1.0
176
     1
 90
        1
176
     1
 90
        6
176
     1
 90
        2
176
     1
 62
     7
176
     1
 90
        5
176
     1
 90
        0
176
     1
 90
        0
176
     1
290
     0
176
     1
 90
        1
176
     1
 40
0.0
176
     1
 90
        0
176
     1
290
     0
176
     1
290
     1
176
     1
290
     1
176
     1
290
     0
176
     1
290
     0
176
     1
290
     0
176
     1
290
     0
176
     1
290
     0
176
     1
290
     0
176
     1
 90
       50
176
     1
 40
0.0
176
     1
 40
1.0
176
     1
 90
        0
176
     1
 62
    18
420
        0
176
     1
 90
       50
176
     1
 90
        3
176
     1
 62
     5
420
      255
176
     1
290
     0
176
     1
 90
       50
176
     1
 90
       50
176
     1
 90
       50
176
     1
290
     0
176
     1
 90
       50
176
     1
 62
   256
176
     0
 40
1.0
176
     0
 90
        2
176
     1
  1
strokes_ogs.tif
176
     1
290
     0
176
     1
 40
1.0
176
     1
 40
1.0
176
     1
  0
VISUALSTYLE
  5
3C
102
{ACAD_REACTORS
330
2A
102
}
330
2A
100
AcDbVisualStyle
  2
OverhangOff
 70
    21
177
     3
291
     1
 70
    58
 90
        2
176
     0
 90
        2
176
     0
 90
        0
176
     0
 90
        0
176
     0
 40
0.6
176
     0
 40
30.0
176
     0
 62
     7
420
 16777215
176
     0
 90
        1
176
     0
 90
        4
176
     0
 62
     7
176
     0
 62
   257
176
     0
 90
        1
176
     0
 90
        1
176
     0
 40
1.0
176
     0
 90
        9
176
     2
 62
     7
176
     0
 40
1.0
176
     0
 90
        1
176
     0
 90
        6
176
     0
 90
        2
176
     0
 62
     7
176
     0
 90
        5
176
     0
 90
        0
176
     0
 90
        0
176
     0
290
     0
176
     0
 90
        1
176
     0
 40
0.0
176
     0
 90
        0
176
     0
290
     0
176
     0
290
     1
176
     0
290
     1
176
     0
290
     0
176
     0
290
     0
176
     0
290
     0
176
     0
290
     0
176
     0
290
     0
176
     0
290
     0
176
     0
 90
       50
176
     0
 40
0.0
176
     0
 40
1.0
176
     0
 90
        0
176
     0
 62
    18
420
        0
176
     0
 90
       50
176
     0
 90
        3
176
     0
 62
     5
420
      255
176
     0
290
     0
176
     0
 90
       50
176
     0
 90
       50
176
     0
 90
       50
176
     0
290
     0
176
     0
 90
       50
176
     0
 62
   256
176
     0
 40
1.0
176
     0
 90
        2
176
     0
  1
strokes_ogs.tif
176
     0
290
     0
176
     0
 40
1.0
176
     0
 40
1.0
176
     0
  0
VISUALSTYLE
  5
33
102
{ACAD_REACTORS
330
2A
102
}
330
2A
100
AcDbVisualStyle
  2
Realistic
 70
     8
177
     3
291
     0
 70
    58
 90
        2
176
     1
 90
        3
176
     1
 90
        0
176
     1
 90
        2
176
     1
 40
0.6
176
     1
 40
30.0
176
     1
 62
     7
420
 16777215
176
     1
 90
        0
176
     1
 90
        0
176
     1
 62
     7
176
     1
 62
   257
176
     1
 90
        1
176
     1
 90
        1
176
     1
 40
1.0
176
     1
 90
        8
176
     1
 62
   257
176
     1
 40
1.0
176
     1
 90
        1
176
     1
 90
        6
176
     1
 90
        2
176
     1
 62
     7
176
     1
 90
        3
176
     1
 90
        0
176
     1
 90
        0
176
     1
290
     0
176
     1
 90
       13
176
     1
 40
0.0
176
     1
 90
        0
176
     1
290
     0
176
     1
290
     1
176
     1
290
     1
176
     1
290
     0
176
     1
290
     0
176
     1
290
     0
176
     1
290
     0
176
     1
290
     0
176
     1
290
     0
176
     1
 90
       50
176
     1
 40
0.0
176
     1
 40
1.0
176
     1
 90
        0
176
     1
 62
    18
420
        0
176
     1
 90
       50
176
     1
 90
        3
176
     1
 62
     5
420
      255
176
     1
290
     0
176
     1
 90
       50
176
     1
 90
       50
176
     1
 90
       50
176
     1
290
     0
176
     1
 90
       50
176
     1
 62
   256
176
     0
 40
1.0
176
     0
 90
        2
176
     1
  1
strokes_ogs.tif
176
     1
290
     0
176
     1
 40
1.0
176
     1
 40
1.0
176
     1
  0
VISUALSTYLE
  5
42
102
{ACAD_REACTORS
330
2A
102
}
330
2A
100
AcDbVisualStyle
  2
Shaded
 70
    27
177
     3
291
     0
 70
    58
 90
        2
176
     1
 90
        2
176
     1
 90
        1
176
     1
 90
        2
176
     1
 40
0.6
176
     1
 40
30.0
176
     1
 62
     7
420
 16777215
176
     1
 90
        0
176
     1
 90
        4
176
     1
 62
     7
176
     1
 62
   257
176
     1
 90
        1
176
     1
 90
        1
176
     1
 40
1.0
176
     1
 90
        8
176
     1
 62
   257
176
     1
 40
1.0
176
     1
 90
        1
176
     1
 90
        6
176
     1
 90
        2
176
     1
 62
     8
420
  7895160
176
     1
 90
        3
176
     1
 90
        0
176
     1
 90
        0
176
     1
290
     0
176
     1
 90
        5
176
     1
 40
0.0
176
     1
 90
        0
176
     1
290
     0
176
     1
290
     1
176
     1
290
     1
176
     1
290
     0
176
     1
290
     0
176
     1
290
     0
176
     1
290
     0
176
     1
290
     0
176
     1
290
     0
176
     1
 90
       50
176
     1
 40
0.0
176
     1
 40
1.0
176
     1
 90
        0
176
     1
 62
    18
420
        0
176
     1
 90
       50
176
     1
 90
        3
176
     1
 62
     5
420
      255
176
     1
290
     0
176
     1
 90
       50
176
     1
 90
       50
176
     1
 90
       50
176
     1
290
     0
176
     1
 90
       50
176
     1
 62
   256
176
     0
 40
1.0
176
     0
 90
        2
176
     1
  1
strokes_ogs.tif
176
     1
290
     0
176
     1
 40
1.0
176
     1
 40
1.0
176
     1
  0
VISUALSTYLE
  5
41
102
{ACAD_REACTORS
330
2A
102
}
330
2A
100
AcDbVisualStyle
  2
Shaded with edges
 70
    26
177
     3
291
     0
 70
    58
 90
        2
176
     1
 90
        2
176
     1
 90
        1
176
     1
 90
        2
176
     1
 40
0.6
176
     1
 40
30.0
176
     1
 62
     7
420
 16777215
176
     1
 90
        1
176
     1
 90
       10
176
     1
 62
     7
176
     1
 62
   257
176
     1
 90
        2
176
     1
 90
        1
176
     1
 40
1.0
176
     1
 90
        8
176
     1
 62
   257
176
     1
 40
1.0
176
     1
 90
        1
176
     1
 90
        6
176
     1
 90
        2
176
     1
 62
     7
176
     1
 90
        3
176
     1
 90
        0
176
     1
 90
        0
176
     1
290
     0
176
     1
 90
        5
176
     1
 40
0.0
176
     1
 90
        0
176
     1
290
     0
176
     1
290
     1
176
     1
290
     1
176
     1
290
     0
176
     1
290
     0
176
     1
290
     0
176
     1
290
     0
176
     1
290
     0
176
     1
290
     0
176
     1
 90
       50
176
     1
 40
0.0
176
     1
 40
1.0
176
     1
 90
        0
176
     1
 62
    18
420
        0
176
     1
 90
       50
176
     1
 90
        3
176
     1
 62
     5
420
      255
176
     1
290
     0
176
     1
 90
       50
176
     1
 90
       50
176
     1
 90
       50
176
     1
290
     0
176
     1
 90
       50
176
     1
 62
   256
176
     0
 40
1.0
176
     0
 90
        2
176
     1
  1
strokes_ogs.tif
176
     1
290
     0
176
     1
 40
1.0
176
     1
 40
1.0
176
     1
  0
VISUALSTYLE
  5
3E
102
{ACAD_REACTORS
330
2A
102
}
330
2A
100
AcDbVisualStyle
  2
Shades of Gray
 70
    23
177
     3
291
     0
 70
    58
 90
        2
176
     1
 90
        2
176
     1
 90
        3
176
     1
 90
        0
176
     1
 40
0.6
176
     1
 40
30.0
176
     1
 62
     7
420
 16777215
176
     1
 90
        2
176
     1
 90
        2
176
     1
 62
     7
176
     1
 62
     7
176
     1
 90
        1
176
     1
 90
        1
176
     1
 40
40.0
176
     1
 90
        8
176
     1
 62
     7
176
     1
 40
1.0
176
     1
 90
        1
176
     1
 90
        6
176
     1
 90
        2
176
     1
 62
     7
176
     1
 90
        3
176
     1
 90
        0
176
     1
 90
        0
176
     1
290
     0
176
     1
 90
        1
176
     1
 40
0.0
176
     1
 90
        0
176
     1
290
     0
176
     1
290
     1
176
     1
290
     1
176
     1
290
     0
176
     1
290
     0
176
     1
290
     0
176
     1
290
     0
176
     1
290
     0
176
     1
290
     0
176
     1
 90
       50
176
     1
 40
0.0
176
     1
 40
1.0
176
     1
 90
        0
176
     1
 62
    18
420
        0
176
     1
 90
       50
176
     1
 90
        3
176
     1
 62
     5
420
      255
176
     1
290
     0
176
     1
 90
       50
176
     1
 90
       50
176
     1
 90
       50
176
     1
290
     0
176
     1
 90
       50
176
     1
 62
   256
176
     0
 40
1.0
176
     0
 90
        2
176
     1
  1
strokes_ogs.tif
176
     1
290
     0
176
     1
 40
1.0
176
     1
 40
1.0
176
     1
  0
VISUALSTYLE
  5
3F
102
{ACAD_REACTORS
330
2A
102
}
330
2A
100
AcDbVisualStyle
  2
Sketchy
 70
    24
177
     3
291
     0
 70
    58
 90
        1
176
     1
 90
        2
176
     1
 90
        2
176
     1
 90
        0
176
     1
 40
0.6
176
     1
 40
30.0
176
     1
 62
     7
420
 16777215
176
     1
 90
        2
176
     1
 90
        2
176
     1
 62
     7
176
     1
 62
     7
176
     1
 90
        1
176
     1
 90
        1
176
     1
 40
40.0
176
     1
 90
       11
176
     1
 62
     7
176
     1
 40
1.0
176
     1
 90
        1
176
     1
 90
        6
176
     1
 90
        2
176
     1
 62
     7
176
     1
 90
        6
176
     1
 90
        0
176
     1
 90
        0
176
     1
290
     0
176
     1
 90
        1
176
     1
 40
0.0
176
     1
 90
        0
176
     1
290
     0
176
     1
290
     1
176
     1
290
     1
176
     1
290
     0
176
     1
290
     0
176
     1
290
     0
176
     1
290
     0
176
     1
290
     0
176
     1
290
     0
176
     1
 90
       50
176
     1
 40
0.0
176
     1
 40
1.0
176
     1
 90
        0
176
     1
 62
    18
420
        0
176
     1
 90
       50
176
     1
 90
        3
176
     1
 62
     5
420
      255
176
     1
290
     0
176
     1
 90
       50
176
     1
 90
       50
176
     1
 90
       50
176
     1
290
     0
176
     1
 90
       50
176
     1
 62
   256
176
     0
 40
1.0
176
     0
 90
        2
176
     1
  1
strokes_ogs.tif
176
     1
290
     0
176
     1
 40
1.0
176
     1
 40
1.0
176
     1
  0
VISUALSTYLE
  5
37
102
{ACAD_REACTORS
330
2A
102
}
330
2A
100
AcDbVisualStyle
  2
Thicken
 70
    13
177
     3
291
     1
 70
    58
 90
        2
176
     1
 90
        2
176
     1
 90
        0
176
     1
 90
        0
176
     1
 40
0.6
176
     1
 40
30.0
176
     1
 62
     7
420
 16777215
176
     1
 90
        1
176
     1
 90
        4
176
     1
 62
     7
176
     1
 62
   257
176
     1
 90
        1
176
     1
 90
        1
176
     1
 40
1.0
176
     1
 90
       12
176
     1
 62
     7
176
     1
 40
1.0
176
     1
 90
        1
176
     1
 90
        6
176
     1
 90
        2
176
     1
 62
     7
176
     1
 90
        5
176
     1
 90
        0
176
     1
 90
        0
176
     1
290
     0
176
     1
 90
        1
176
     1
 40
0.0
176
     1
 90
        0
176
     1
290
     0
176
     1
290
     1
176
     1
290
     1
176
     1
290
     0
176
     1
290
     0
176
     1
290
     0
176
     1
290
     0
176
     1
290
     0
176
     1
290
     0
176
     1
 90
       50
176
     1
 40
0.0
176
     1
 40
1.0
176
     1
 90
        0
176
     1
 62
    18
420
        0
176
     1
 90
       50
176
     1
 90
        3
176
     1
 62
     5
420
      255
176
     1
290
     0
176
     1
 90
       50
176
     1
 90
       50
176
     1
 90
       50
176
     1
290
     0
176
     1
 90
       50
176
     1
 62
   256
176
     0
 40
1.0
176
     0
 90
        2
176
     1
  1
strokes_ogs.tif
176
     1
290
     0
176
     1
 40
1.0
176
     1
 40
1.0
176
     1
  0
VISUALSTYLE
  5
30
102
{ACAD_REACTORS
330
2A
102
}
330
2A
100
AcDbVisualStyle
  2
Wireframe
 70
     5
177
     3
291
     0
 70
    58
 90
        0
176
     1
 90
        2
176
     1
 90
        0
176
     1
 90
        0
176
     1
 40
0.6
176
     1
 40
30.0
176
     1
 62
     7
420
 16777215
176
     1
 90
        1
176
     1
 90
        4
176
     1
 62
     7
176
     1
 62
   257
176
     1
 90
        1
176
     1
 90
        1
176
     1
 40
1.0
176
     1
 90
        0
176
     1
 62
   257
176
     1
 40
1.0
176
     1
 90
        1
176
     1
 90
        6
176
     1
 90
        2
176
     1
 62
     7
176
     1
 90
        3
176
     1
 90
        0
176
     1
 90
        0
176
     1
290
     0
176
     1
 90
        1
176
     1
 40
0.0
176
     1
 90
        0
176
     1
290
     0
176
     1
290
     1
176
     1
290
     1
176
     1
290
     0
176
     1
290
     0
176
     1
290
     0
176
     1
290
     0
176
     1
290
     0
176
     1
290
     0
176
     1
 90
       50
176
     1
 40
0.0
176
     1
 40
1.0
176
     1
 90
        0
176
     1
 62
    18
420
        0
176
     1
 90
       50
176
     1
 90
        3
176
     1
 62
     5
420
      255
176
     1
290
     0
176
     1
 90
       50
176
     1
 90
       50
176
     1
 90
       50
176
     1
290
     0
176
     1
 90
       50
176
     1
 62
   256
176
     0
 40
1.0
176
     0
 90
        2
176
     1
  1
strokes_ogs.tif
176
     1
290
     0
176
     1
 40
1.0
176
     1
 40
1.0
176
     1
  0
VISUALSTYLE
  5
40
102
{ACAD_REACTORS
330
2A
102
}
330
2A
100
AcDbVisualStyle
  2
X-Ray
 70
    25
177
     3
291
     0
 70
    58
 90
        2
176
     1
 90
        2
176
     1
 90
        1
176
     1
 90
        1
176
     1
 40
0.5
176
     1
 40
30.0
176
     1
 62
     7
420
 16777215
176
     1
 90
        1
176
     1
 90
        0
176
     1
 62
     7
176
     1
 62
   257
176
     1
 90
        1
176
     1
 90
        1
176
     1
 40
1.0
176
     1
 90
        8
176
     1
 62
     7
176
     1
 40
1.0
176
     1
 90
        1
176
     1
 90
        6
176
     1
 90
        2
176
     1
 62
     7
176
     1
 90
        3
176
     1
 90
        0
176
     1
 90
        0
176
     1
290
     0
176
     1
 90
       13
176
     1
 40
0.0
176
     1
 90
        0
176
     1
290
     0
176
     1
290
     1
176
     1
290
     1
176
     1
290
     0
176
     1
290
     0
176
     1
290
     0
176
     1
290
     0
176
     1
290
     0
176
     1
290
     0
176
     1
 90
       50
176
     1
 40
0.0
176
     1
 40
1.0
176
     1
 90
        0
176
     1
 62
    18
420
        0
176
     1
 90
       50
176
     1
 90
        3
176
     1
 62
     5
420
      255
176
     1
290
     0
176
     1
 90
       50
176
     1
 90
       50
176
     1
 90
       50
176
     1
290
     0
176
     1
 90
       50
176
     1
 62
   256
176
     0
 40
1.0
176
     0
 90
        2
176
     1
  1
strokes_ogs.tif
176
     1
290
     0
176
     1
 40
1.0
176
     1
 40
1.0
176
     1
  0
DICTIONARYVAR
  5
D0
102
{ACAD_REACTORS
330
CF
102
}
330
CF
100
DictionaryVariables
280
     0
  1
1:1
  0
DICTIONARYVAR
  5
D5
102
{ACAD_REACTORS
330
CF
102
}
330
CF
100
DictionaryVariables
280
     0
  1
Standard
  0
DICTIONARYVAR
  5
D4
102
{ACAD_REACTORS
330
CF
102
}
330
CF
100
DictionaryVariables
280
     0
  1
Standard
  0
XRECORD
  5
5F
102
{ACAD_REACTORS
330
5E
102
}
330
5E
100
AcDbXrecord
280
     1
1000
Untitled 1
 40
91.75
 40
23.75
 40
0.0
 40
0.0
 40
0.0
 40
0.0
  0
DICTIONARY
  5
D1
330
5A
100
AcDbDictionary
280
     1
281
     1
  3
ACAD_ROUNDTRIP_2008_TABLESTYLE_CELLSTYLEMAP
360
D2
  0
CELLSTYLEMAP
  5
D2
102
{ACAD_REACTORS
330
D1
102
}
330
D1
100
AcDbCellStyleMap
 90
        3
300
CELLSTYLE
  1
TABLEFORMAT_BEGIN
 90
        5
170
     1
 91
        0
 92
    32768
 62
   257
 93
        1
300
CONTENTFORMAT
  1
CONTENTFORMAT_BEGIN
 90
        0
 91
        0
 92
        4
 93
        0
300

 40
0.0
140
1.0
 94
        5
 62
     0
340
11
144
0.25
309
CONTENTFORMAT_END
171
     1
301
MARGIN
  1
CELLMARGIN_BEGIN
 40
0.06
 40
0.06
 40
0.06
 40
0.06
 40
0.06
 40
0.06
309
CELLMARGIN_END
 94
        6
 95
        1
302
GRIDFORMAT
  1
GRIDFORMAT_BEGIN
 90
        0
 91
        1
 62
     0
 92
       -2
340
14
 93
        0
 40
0.045
309
GRIDFORMAT_END
 95
        2
302
GRIDFORMAT
  1
GRIDFORMAT_BEGIN
 90
        0
 91
        1
 62
     0
 92
       -2
340
14
 93
        0
 40
0.045
309
GRIDFORMAT_END
 95
        4
302
GRIDFORMAT
  1
GRIDFORMAT_BEGIN
 90
        0
 91
        1
 62
     0
 92
       -2
340
14
 93
        0
 40
0.045
309
GRIDFORMAT_END
 95
        8
302
GRIDFORMAT
  1
GRIDFORMAT_BEGIN
 90
        0
 91
        1
 62
     0
 92
       -2
340
14
 93
        0
 40
0.045
309
GRIDFORMAT_END
 95
       16
302
GRIDFORMAT
  1
GRIDFORMAT_BEGIN
 90
        0
 91
        1
 62
     0
 92
       -2
340
14
 93
        0
 40
0.045
309
GRIDFORMAT_END
 95
       32
302
GRIDFORMAT
  1
GRIDFORMAT_BEGIN
 90
        0
 91
        1
 62
     0
 92
       -2
340
14
 93
        0
 40
0.045
309
GRIDFORMAT_END
309
TABLEFORMAT_END
  1
CELLSTYLE_BEGIN
 90
        1
 91
        1
300
_TITLE
309
CELLSTYLE_END
300
CELLSTYLE
  1
TABLEFORMAT_BEGIN
 90
        5
170
     1
 91
        0
 92
        0
 62
   257
 93
        1
300
CONTENTFORMAT
  1
CONTENTFORMAT_BEGIN
 90
        0
 91
        0
 92
        4
 93
        0
300

 40
0.0
140
1.0
 94
        5
 62
     0
340
11
144
0.18
309
CONTENTFORMAT_END
171
     1
301
MARGIN
  1
CELLMARGIN_BEGIN
 40
0.06
 40
0.06
 40
0.06
 40
0.06
 40
0.06
 40
0.06
309
CELLMARGIN_END
 94
        6
 95
        1
302
GRIDFORMAT
  1
GRIDFORMAT_BEGIN
 90
        0
 91
        1
 62
     0
 92
       -2
340
14
 93
        0
 40
0.045
309
GRIDFORMAT_END
 95
        2
302
GRIDFORMAT
  1
GRIDFORMAT_BEGIN
 90
        0
 91
        1
 62
     0
 92
       -2
340
14
 93
        0
 40
0.045
309
GRIDFORMAT_END
 95
        4
302
GRIDFORMAT
  1
GRIDFORMAT_BEGIN
 90
        0
 91
        1
 62
     0
 92
       -2
340
14
 93
        0
 40
0.045
309
GRIDFORMAT_END
 95
        8
302
GRIDFORMAT
  1
GRIDFORMAT_BEGIN
 90
        0
 91
        1
 62
     0
 92
       -2
340
14
 93
        0
 40
0.045
309
GRIDFORMAT_END
 95
       16
302
GRIDFORMAT
  1
GRIDFORMAT_BEGIN
 90
        0
 91
        1
 62
     0
 92
       -2
340
14
 93
        0
 40
0.045
309
GRIDFORMAT_END
 95
       32
302
GRIDFORMAT
  1
GRIDFORMAT_BEGIN
 90
        0
 91
        1
 62
     0
 92
       -2
340
14
 93
        0
 40
0.045
309
GRIDFORMAT_END
309
TABLEFORMAT_END
  1
CELLSTYLE_BEGIN
 90
        2
 91
        1
300
_HEADER
309
CELLSTYLE_END
300
CELLSTYLE
  1
TABLEFORMAT_BEGIN
 90
        5
170
     1
 91
        0
 92
        0
 62
   257
 93
        1
300
CONTENTFORMAT
  1
CONTENTFORMAT_BEGIN
 90
        0
 91
        0
 92
        4
 93
        0
300

 40
0.0
140
1.0
 94
        2
 62
     0
340
11
144
0.18
309
CONTENTFORMAT_END
171
     1
301
MARGIN
  1
CELLMARGIN_BEGIN
 40
0.06
 40
0.06
 40
0.06
 40
0.06
 40
0.06
 40
0.06
309
CELLMARGIN_END
 94
        6
 95
        1
302
GRIDFORMAT
  1
GRIDFORMAT_BEGIN
 90
        0
 91
        1
 62
     0
 92
       -2
340
14
 93
        0
 40
0.045
309
GRIDFORMAT_END
 95
        2
302
GRIDFORMAT
  1
GRIDFORMAT_BEGIN
 90
        0
 91
        1
 62
     0
 92
       -2
340
14
 93
        0
 40
0.045
309
GRIDFORMAT_END
 95
        4
302
GRIDFORMAT
  1
GRIDFORMAT_BEGIN
 90
        0
 91
        1
 62
     0
 92
       -2
340
14
 93
        0
 40
0.045
309
GRIDFORMAT_END
 95
        8
302
GRIDFORMAT
  1
GRIDFORMAT_BEGIN
 90
        0
 91
        1
 62
     0
 92
       -2
340
14
 93
        0
 40
0.045
309
GRIDFORMAT_END
 95
       16
302
GRIDFORMAT
  1
GRIDFORMAT_BEGIN
 90
        0
 91
        1
 62
     0
 92
       -2
340
14
 93
        0
 40
0.045
309
GRIDFORMAT_END
 95
       32
302
GRIDFORMAT
  1
GRIDFORMAT_BEGIN
 90
        0
 91
        1
 62
     0
 92
       -2
340
14
 93
        0
 40
0.045
309
GRIDFORMAT_END
309
TABLEFORMAT_END
  1
CELLSTYLE_BEGIN
 90
        3
 91
        2
300
_DATA
309
CELLSTYLE_END
  0
ENDSEC
  0
EOF
